<svg xmlns="http://www.w3.org/2000/svg" viewBox="0 0 1700 1084"><defs><style>.cls-1,.cls-2{fill:#fff;}.cls-2{opacity:0.25;}</style></defs><title>exp4-bg-img-1Artboard 1</title><g id="Layer_1" data-name="Layer 1"><rect width="1700" height="1084"/></g><g id="Layer_2" data-name="Layer 2"><path class="cls-1" d="M376.9,409.45a7.47,7.47,0,0,1-2-6.08,30.4,30.4,0,0,1,2.19-10.3,95.71,95.71,0,0,1,6.25-12.32,208.93,208.93,0,0,1,33.43-41.37l.17-.17a16.52,16.52,0,0,1,5.06-3.88,2.74,2.74,0,0,1,1.52-.51,2.65,2.65,0,0,1,1.35.51A2.79,2.79,0,0,1,426,337a2.25,2.25,0,0,1-.67,2,2.93,2.93,0,0,1-1,1c-9.46,8.1-18.24,17.73-27.35,30.39-4.9,6.75-10,14-13.85,22.45a28,28,0,0,0-2.53,7.77c-.16,2.19-.16,3.71.85,4.73a3.72,3.72,0,0,0,2.87,1,9.58,9.58,0,0,0,2-.17,28.34,28.34,0,0,0,7.94-2.37l8.1-3.37c6.92-2.87,13.85-5.91,20.76-8.95a10.74,10.74,0,0,0,2.37-1.35c.34-.17.5-.34.84-.34a4,4,0,0,1,2-.84,2,2,0,0,1,1.85,1.18,3.19,3.19,0,0,1-.67,4.39,7.61,7.61,0,0,1-2,1.18c-1,.34-2,.84-3,1.18l-1.86.85-6.25,2.7c-6.08,2.53-12.15,5.06-18.23,7.76a45.15,45.15,0,0,1-11.65,3.55h-.84a1.27,1.27,0,0,1-.85.17H384C381.12,412,378.42,411.13,376.9,409.45Z"/><path class="cls-1" d="M423.16,403.2a33.26,33.26,0,0,1,.34-3.55,49.51,49.51,0,0,1,3.72-10.46,11.2,11.2,0,0,1,2-2.7,2.71,2.71,0,0,1,1.52-.51,4.17,4.17,0,0,1,1.35.17,2.71,2.71,0,0,1,1.18,2.36,5.06,5.06,0,0,1-.84,2.7,52.35,52.35,0,0,0-3.38,8.78,3.19,3.19,0,0,0,.51,2.54,2.11,2.11,0,0,0,2,.84h.68a26.12,26.12,0,0,0,2.71-.84c3.37-1.19,6.91-2.37,10.46-3.38,8.27-2.7,16.71-5.57,25-8.78l.67-.17c2.2-.85,8.78-3.71,10.13-2.7a3.76,3.76,0,0,1-1.35,4.22,13.52,13.52,0,0,1-5.23,2.87c-2.7,1-5.57,2-8.11,3a168.71,168.71,0,0,1-16.88,5.91c-3,.84-6.08,1.86-8.95,2.87-1.69.5-3.2,1.18-4.72,1.69l-.51.16a22.8,22.8,0,0,1-5.24,1.19h-.5C425.36,409.45,423.16,407.42,423.16,403.2Zm14-35.29a2.57,2.57,0,0,1,0-2.7,7.61,7.61,0,0,1,1.18-1.69,67.69,67.69,0,0,1,8.1-6.07,8,8,0,0,1,2.53-1h.51a2.87,2.87,0,0,1,2.54,1.86,2.31,2.31,0,0,1-.85,2.7,1.72,1.72,0,0,1-.84.68,50.31,50.31,0,0,0-8.45,6.08l-.16.16a4.05,4.05,0,0,1-2.2,1.19h-.17A2.42,2.42,0,0,1,437.18,367.91Z"/><path class="cls-1" d="M481.75,403a5.2,5.2,0,0,1-5.23-4.89,18.94,18.94,0,0,1,0-4.39,19.31,19.31,0,0,1,3-8.11,10.26,10.26,0,0,1,1.18-1.35,2.19,2.19,0,0,1,1.69-.67,2.45,2.45,0,0,1,1,.33,2.27,2.27,0,0,1,1.53,2.37,5.1,5.1,0,0,1-.85,2.87,10.07,10.07,0,0,0-2,5.4,3.07,3.07,0,0,0,.68,2.19,2.79,2.79,0,0,0,2,.85h.34c2.7,0,5.41-1,8.27-2,4.23-1.52,8.1-3.88,11.49-5.57l.67-.34c3.21-1.68,6.25-3.71,9.62-5.57a11,11,0,0,1,5.4-1.52,11.5,11.5,0,0,1,3.89.85,50.72,50.72,0,0,0,18.06,3.37h9.8c2.87,0,5.06-.5,7.25-.5h.51a2.37,2.37,0,0,1,1.86,1.35c.67,1,.51,1.85-.17,3a3.48,3.48,0,0,1-3.21,1.68h-9.29a11.8,11.8,0,0,1-2.36.17c-4.22,0-8.61.17-12.49-.84l-.68-.17c-3.21-.84-6.41-1-10.64-2.7a6.68,6.68,0,0,0-2.53-.51,6.81,6.81,0,0,0-3,.85l-3.55,2c-1,.51-1.86,1.18-2.87,1.69l-.34.17c-4.39,2.2-8.61,4.73-13.16,6.75-4.9,2.2-8.95,3.38-13,3.38h-1C482.94,403.2,482.26,403,481.75,403Z"/><path class="cls-1" d="M563.65,405.9c-3.21-.67-6.08-2.19-7.61-4.56s-1.85-5.4-1-8.78a14.86,14.86,0,0,1,3.21-6.24,29.74,29.74,0,0,1,9.29-7.6,13.16,13.16,0,0,1,6.41-1.35h1a6,6,0,0,1,5.23,2.87c1,1.69.84,3.88-.34,6.08a13.38,13.38,0,0,1-1.35,1.86c-3.38,4.38-8.1,7.26-13.34,7.26h-.5a8.51,8.51,0,0,0-1.86.33c-.84.17-1.18,1-1.35,1.69a1.92,1.92,0,0,0,.84,2,11.33,11.33,0,0,0,5.07,1.36,12.92,12.92,0,0,0,2.53-.34,217,217,0,0,0,21.27-5.4c6.93-2.2,14-3.55,20.94-5.41,3.2-.84,6.41-2.53,9.79-2.53.51,0,1-.17,1.52-.17a2.55,2.55,0,0,1,2.36,1.69,2.4,2.4,0,0,1-.67,2.7,6.36,6.36,0,0,1-3.38,1.52l-2,.51c-4.56,1.18-9.12,2-13.68,3.37-3.55,1-7.26,1.86-11,3-3.38,1-6.92,1.86-10.47,2.88a126.5,126.5,0,0,1-12.66,3,18.61,18.61,0,0,1-3,.34h-2.54A13.43,13.43,0,0,1,563.65,405.9Zm5.06-17.22a8.66,8.66,0,0,0,3.54-2.36,1.1,1.1,0,0,0,.34-.85l.17-.67-.51-.51a1.53,1.53,0,0,0-1.17-.67h-.18c-1.52,0-2.7.84-4,2.19a2.3,2.3,0,0,0-.51,1.35l.18.68.5.34a3.39,3.39,0,0,0,1.35.5Z"/><path class="cls-1" d="M621.56,410.8c-1-.34-1.68-1-1.86-3a15.07,15.07,0,0,1,2.71-6.08,2.77,2.77,0,0,1,2-.84,5.06,5.06,0,0,1,1.34.33c.68.17,1.53.68,1.69,2.37a9.7,9.7,0,0,1-.16,1.35,17.59,17.59,0,0,1-2.87,5.23,2.93,2.93,0,0,1-1.86,1A2.54,2.54,0,0,1,621.56,410.8Z"/><path class="cls-1" d="M689.44,409.45a7.5,7.5,0,0,1-2-6.08,30.41,30.41,0,0,1,2.2-10.3,94.37,94.37,0,0,1,6.24-12.32,208.63,208.63,0,0,1,33.44-41.37l.16-.17a16.45,16.45,0,0,1,5.07-3.88,2.27,2.27,0,0,1,2.87,0,2.88,2.88,0,0,1,1.18,1.69,2.32,2.32,0,0,1-.68,2,2.85,2.85,0,0,1-1,1c-9.45,8.1-18.23,17.73-27.35,30.39-4.9,6.75-10,14-13.84,22.45a27.67,27.67,0,0,0-2.53,7.77c-.18,2.19-.18,3.71.84,4.73a3.72,3.72,0,0,0,2.87,1,9.72,9.72,0,0,0,2-.17,28.18,28.18,0,0,0,7.93-2.37l8.1-3.37c6.93-2.87,13.85-5.91,20.77-8.95a10.66,10.66,0,0,0,2.36-1.35c.34-.17.51-.34.85-.34a4,4,0,0,1,2-.84,2,2,0,0,1,1.86,1.18,3.2,3.2,0,0,1-.67,4.39,7.83,7.83,0,0,1-2,1.18c-1,.34-2,.84-3,1.18l-1.86.85L729,400.5c-6.08,2.53-12.16,5.06-18.24,7.76a45,45,0,0,1-11.65,3.55h-.84a1.27,1.27,0,0,1-.85.17h-.84C693.66,412,691,411.13,689.44,409.45Z"/><path class="cls-1" d="M746.68,405.9c-3.21-.67-6.08-2.19-7.6-4.56s-1.85-5.4-1-8.78a14.73,14.73,0,0,1,3.2-6.24,29.74,29.74,0,0,1,9.29-7.6,13.2,13.2,0,0,1,6.42-1.35h1a6,6,0,0,1,5.23,2.87c1,1.69.85,3.88-.34,6.08a13.27,13.27,0,0,1-1.34,1.86c-3.38,4.38-8.11,7.26-13.34,7.26h-.51a8.72,8.72,0,0,0-1.86.33c-.84.17-1.18,1-1.35,1.69a1.93,1.93,0,0,0,.85,2,11.29,11.29,0,0,0,5.06,1.36,12.92,12.92,0,0,0,2.53-.34,216.54,216.54,0,0,0,21.28-5.4c6.92-2.2,14-3.55,20.93-5.41,3.21-.84,6.42-2.53,9.79-2.53.51,0,1-.17,1.52-.17a2.55,2.55,0,0,1,2.37,1.69,2.4,2.4,0,0,1-.68,2.7,6.29,6.29,0,0,1-3.37,1.52l-2,.51c-4.56,1.18-9.12,2-13.68,3.37-3.54,1-7.26,1.86-11,3-3.38,1-6.92,1.86-10.47,2.88a125.85,125.85,0,0,1-12.66,3,18.49,18.49,0,0,1-3,.34h-2.53A13.49,13.49,0,0,1,746.68,405.9Zm5.07-17.22a8.73,8.73,0,0,0,3.54-2.36,1.1,1.1,0,0,0,.34-.85l.16-.67-.5-.51a1.58,1.58,0,0,0-1.18-.67h-.17c-1.52,0-2.71.84-4.05,2.19a2.23,2.23,0,0,0-.51,1.35l.17.68.51.34a3.28,3.28,0,0,0,1.35.5Z"/><path class="cls-1" d="M795.48,406.74a4.49,4.49,0,0,1-3-4.55,6.22,6.22,0,0,1,1-3.55c6.41-10,15.36-15.53,25.49-15.53a12.39,12.39,0,0,1,6.92,2,8,8,0,0,0,4.73,1.69h1a.62.62,0,0,1,.51-.17,2.42,2.42,0,0,1,2.19,1.36,2.8,2.8,0,0,1,.17,3,31,31,0,0,0-2,5.56,2.59,2.59,0,0,0,.51,2.7,2.66,2.66,0,0,0,2.53,1.19H836a48.2,48.2,0,0,0,8.78-2.2,77.69,77.69,0,0,0,13.51-6.41c3.2-1.69,5.73-2.87,8.1-4.05a13,13,0,0,1,2.53-1h.5a3.05,3.05,0,0,1,2.88,2.2,2.49,2.49,0,0,1-1.35,2.7c-3.38,1.52-6.59,3.21-9.8,4.89a103.57,103.57,0,0,1-14.51,6.93,34.46,34.46,0,0,1-12.33,2.36c-2.87,0-4.9-.67-6.25-2.53a16.35,16.35,0,0,1-1.86-5.07l-.16-1h-1a8.31,8.31,0,0,0-4.23,1.52l-.84.5-.51.34a81.76,81.76,0,0,1-11.81,5.41c-2.53.84-4.9,1.51-6.93,2a11.51,11.51,0,0,1-2.19.34A8.83,8.83,0,0,1,795.48,406.74Zm7.6-6.07a7.51,7.51,0,0,0,1.69-.34,108,108,0,0,0,15-7.26l1-.85a2.1,2.1,0,0,0,.17-2,2.14,2.14,0,0,0-1.34-1.35c-.52,0-1-.17-1.36-.17h-.67c-6.25.51-11.48,3.38-16.38,8.61a1.92,1.92,0,0,0-.51,1.35,4.27,4.27,0,0,0,.34,1.18,2,2,0,0,0,1.52.85Z"/><path class="cls-1" d="M865.38,406.41a2.26,2.26,0,0,1-1.52-2.37,17.69,17.69,0,0,1,.51-5.23c.68-2.53,1.86-4.9,1.86-7.6v-.33c0-3.38,1.35-6.42,1.35-10a12.41,12.41,0,0,1,.5-2,2.21,2.21,0,0,1,2.37-1.69c1.18,0,2.53.5,2.53,1.69l.17,2.2c0,.67-.17,2.86,2,3.2a.55.55,0,0,0,.33.17c1.52,0,2.2-1.52,2.7-2.53a3.42,3.42,0,0,1,.51-.84,13.59,13.59,0,0,0,2-2.71,27.21,27.21,0,0,1,1.86-2.53,16.74,16.74,0,0,1,1.69-1.86,3.55,3.55,0,0,1,2.54-1.18A2.5,2.5,0,0,1,888,373a3.28,3.28,0,0,1,2,3.38v.5c0,2.7.34,5.57,2.7,7.77a12.93,12.93,0,0,0,9.12,3.71h.84c3.38,0,6.76-.16,10.47-.33,6.92-.34,13.17,0,18.91-1.86a4.65,4.65,0,0,1,1.52-.17h1.18a2.21,2.21,0,0,1,2,1.35,3,3,0,0,1-.17,2.7,3.37,3.37,0,0,1-3.21,2c-.51,0-1-.17-1.52-.17h-.17a31.45,31.45,0,0,1-3.21.33,47.94,47.94,0,0,0-6.75.68,115.73,115.73,0,0,1-17,.85H902a18.34,18.34,0,0,1-15.36-7.6,3.29,3.29,0,0,0-2.37-1.52,2.82,2.82,0,0,0-2.36,1.52,5.47,5.47,0,0,1-.67,1.35L879.73,390c-.67,1-1.35,2.19-2,3.38a73.28,73.28,0,0,1-6.93,10.3,30.12,30.12,0,0,1-2.19,2.36,2.44,2.44,0,0,1-1.69.67A5.26,5.26,0,0,1,865.38,406.41Z"/><path class="cls-1" d="M970.4,408.1a5.87,5.87,0,0,1-1.18-4.9l1-3.55c.17-.84.34-1.51.51-2.19a3.19,3.19,0,0,0-.34-2.7,2.35,2.35,0,0,0-2-1,7.77,7.77,0,0,0-.85.16c-2.53.51-4.39,1-6.08,1.53-4.38,1.51-8.77,3.2-13,4.72l-8.44,3c-1.52.51-2.87,1-4.39,1.52a21.16,21.16,0,0,0-3,.84,10.14,10.14,0,0,1-3.38.51h-1.35a3.73,3.73,0,0,1-3-1.35,4.47,4.47,0,0,1-.84-3.38,11.44,11.44,0,0,1,1-2.87,35.68,35.68,0,0,1,4.56-8.27l.85-1.35,3.2-4.22a9.78,9.78,0,0,1,1.18-1.52,3.53,3.53,0,0,1,1.86-.68,1.91,1.91,0,0,1,1.35.51,3,3,0,0,1,1,2.87,13.61,13.61,0,0,1-1.69,3l-.5.67a28.6,28.6,0,0,1-1.69,2.37l-2.53,3.88a2.26,2.26,0,0,0,0,2.7,2.48,2.48,0,0,0,1.85.68,1,1,0,0,0,.68-.17l7.09-2.53,6.41-2.37,10.81-3.71a52.39,52.39,0,0,1,9-2.36,18.18,18.18,0,0,1,3-.17h.34a4.7,4.7,0,0,1,5.06,4.22,5.15,5.15,0,0,1,.17,1.69v.84a9.26,9.26,0,0,1-.51,2.87l-.51,2v.17a2.52,2.52,0,0,0,.51,2.54,2.4,2.4,0,0,0,1.69.67,5,5,0,0,0,1.69-.33,6,6,0,0,0,.85-.51l1.17-.51,6.93-3,14.68-6.58,3.55-1.52,2.37-1a8,8,0,0,1,2.87-.5h.16a2.4,2.4,0,0,1,2.54,2,2.61,2.61,0,0,1-1.36,2.87l-.5.33H1013c-4.9,1.69-9.62,3.89-14,5.91L990,404l-6.08,2.53-4.22,2a17.23,17.23,0,0,1-4.22,1.19h-.84C972.77,409.79,971.25,409.28,970.4,408.1Z"/><path class="cls-1" d="M1013.46,410.8c-1-.34-1.68-1-1.85-3a15,15,0,0,1,2.7-6.08,2.77,2.77,0,0,1,2-.84,5.06,5.06,0,0,1,1.34.33c.68.17,1.53.68,1.69,2.37a9.7,9.7,0,0,1-.16,1.35,17.59,17.59,0,0,1-2.87,5.23,2.93,2.93,0,0,1-1.86,1A2.54,2.54,0,0,1,1013.46,410.8Z"/><path class="cls-1" d="M1081.34,409.45a7.5,7.5,0,0,1-2-6.08,30.18,30.18,0,0,1,2.2-10.3,93.14,93.14,0,0,1,6.24-12.32,208.58,208.58,0,0,1,33.43-41.37l.17-.17a16.52,16.52,0,0,1,5.06-3.88,2.71,2.71,0,0,1,1.52-.51,2.68,2.68,0,0,1,1.35.51,2.84,2.84,0,0,1,1.18,1.69,2.31,2.31,0,0,1-.67,2,2.89,2.89,0,0,1-1,1c-9.45,8.1-18.23,17.73-27.34,30.39-4.9,6.75-10,14-13.85,22.45a28,28,0,0,0-2.53,7.77c-.17,2.19-.17,3.71.84,4.73a3.74,3.74,0,0,0,2.87,1,9.67,9.67,0,0,0,2-.17,28.18,28.18,0,0,0,7.93-2.37l8.11-3.37c6.92-2.87,13.84-5.91,20.76-8.95a10.74,10.74,0,0,0,2.37-1.35c.33-.17.5-.34.84-.34a4,4,0,0,1,2-.84,2,2,0,0,1,1.86,1.18,3.21,3.21,0,0,1-.68,4.39,7.67,7.67,0,0,1-2,1.18c-1,.34-2,.84-3,1.18l-1.86.85-6.24,2.7c-6.08,2.53-12.16,5.06-18.24,7.76a45,45,0,0,1-11.65,3.55h-.84a1.24,1.24,0,0,1-.84.17h-.85C1085.56,412,1082.86,411.13,1081.34,409.45Z"/><path class="cls-1" d="M1138.58,405.9c-3.2-.67-6.08-2.19-7.59-4.56s-1.86-5.4-1-8.78a14.75,14.75,0,0,1,3.21-6.24,29.52,29.52,0,0,1,9.29-7.6,13.18,13.18,0,0,1,6.41-1.35h1a6,6,0,0,1,5.24,2.87c1,1.69.84,3.88-.34,6.08a13.38,13.38,0,0,1-1.35,1.86c-3.38,4.38-8.1,7.26-13.34,7.26h-.51a8.53,8.53,0,0,0-1.85.33c-.84.17-1.18,1-1.35,1.69a1.92,1.92,0,0,0,.84,2,11.33,11.33,0,0,0,5.07,1.36,12.92,12.92,0,0,0,2.53-.34,217,217,0,0,0,21.27-5.4c6.93-2.2,14-3.55,20.93-5.41,3.21-.84,6.42-2.53,9.8-2.53.5,0,1-.17,1.52-.17a2.55,2.55,0,0,1,2.36,1.69,2.4,2.4,0,0,1-.67,2.7,6.36,6.36,0,0,1-3.38,1.52l-2,.51c-4.56,1.18-9.12,2-13.68,3.37-3.55,1-7.26,1.86-11,3-3.37,1-6.92,1.86-10.46,2.88a127.16,127.16,0,0,1-12.66,3,18.61,18.61,0,0,1-3,.34h-2.53A13.59,13.59,0,0,1,1138.58,405.9Zm5.07-17.22a8.66,8.66,0,0,0,3.54-2.36,1.1,1.1,0,0,0,.34-.85l.17-.67-.51-.51a1.58,1.58,0,0,0-1.18-.67h-.17c-1.51,0-2.7.84-4,2.19a2.23,2.23,0,0,0-.51,1.35l.17.68.51.34a3.33,3.33,0,0,0,1.35.5Z"/><path class="cls-1" d="M1187.38,406.74a4.48,4.48,0,0,1-3-4.55,6.21,6.21,0,0,1,1-3.55c6.41-10,15.36-15.53,25.49-15.53a12.39,12.39,0,0,1,6.92,2,8,8,0,0,0,4.73,1.69h1a.62.62,0,0,1,.51-.17,2.42,2.42,0,0,1,2.19,1.36,2.82,2.82,0,0,1,.18,3,31,31,0,0,0-2,5.56,2.55,2.55,0,0,0,.51,2.7,2.64,2.64,0,0,0,2.53,1.19h.5a48.2,48.2,0,0,0,8.78-2.2,77,77,0,0,0,13.51-6.41c3.21-1.69,5.74-2.87,8.1-4.05a12.83,12.83,0,0,1,2.54-1h.5a3,3,0,0,1,2.87,2.2,2.49,2.49,0,0,1-1.35,2.7c-3.38,1.52-6.58,3.21-9.79,4.89a104.23,104.23,0,0,1-14.52,6.93,34.42,34.42,0,0,1-12.33,2.36c-2.87,0-4.89-.67-6.24-2.53a15.86,15.86,0,0,1-1.86-5.07l-.17-1h-1a8.23,8.23,0,0,0-4.22,1.52l-.84.5-.51.34a82.36,82.36,0,0,1-11.82,5.41c-2.53.84-4.9,1.51-6.92,2a11.61,11.61,0,0,1-2.2.34A8.89,8.89,0,0,1,1187.38,406.74Zm7.6-6.07a7.31,7.31,0,0,0,1.69-.34,107.47,107.47,0,0,0,15-7.26l1-.85a2.1,2.1,0,0,0,.17-2,2.15,2.15,0,0,0-1.35-1.35c-.51,0-1-.17-1.35-.17h-.68c-6.24.51-11.48,3.38-16.37,8.61a1.92,1.92,0,0,0-.51,1.35,4.57,4.57,0,0,0,.33,1.18,2,2,0,0,0,1.52.85Z"/><path class="cls-1" d="M1285.82,403.87a6.54,6.54,0,0,1-1.69-4.39c0-.84.17-1.51.17-2.36v-1a1.71,1.71,0,0,0-.34-1.52,1.3,1.3,0,0,0-1.18-.51c-.17,0-.51-.17-.67,0l-.17.17a11,11,0,0,0-1.52,1,20.06,20.06,0,0,1-3,2c-4.39,2.87-8.44,5.74-13,6.92a18.62,18.62,0,0,1-4.73.85h-.51c-2.53,0-3.88-1.35-4.89-3.89-.84-2-.68-4.05.33-6.75,2.2-5.91,11-12.66,18.91-12.66a12.93,12.93,0,0,1,2.7.34,18.53,18.53,0,0,1,4.06,1.35,7.16,7.16,0,0,0,2.36.67,4,4,0,0,0,3.21-1.69c.84-1,1.85-1.85,2.87-2.87,1.52-1.52,2.7-2.87,4-4.39,6.25-6.92,12.33-14,18.74-20.93,3.37-3.71,6.42-7.6,10.13-11.31l.51-.51,1.68-1.69a2.46,2.46,0,0,1,1.69-.67,2.68,2.68,0,0,1,2.54,1.85,1.83,1.83,0,0,1-.17,2,64.11,64.11,0,0,1-4.23,5.4l-6.41,7.6c-2.7,3-5.4,6.25-7.94,9.46A186.16,186.16,0,0,0,1294.77,387a46.77,46.77,0,0,0-4.22,8.28,6.7,6.7,0,0,0-.51,3.2,2.18,2.18,0,0,0,2,2h.5a5.91,5.91,0,0,0,1.69-.34c9.46-3.21,23.47-8.44,30.22-11.82l.34-.16a5.86,5.86,0,0,1,2.7-1h.17a2.35,2.35,0,0,1,2,1.18,3.25,3.25,0,0,1,0,2.2,3.45,3.45,0,0,1-1.35,1.85l-2.7,1.69a106.37,106.37,0,0,1-31.57,11.82,16.52,16.52,0,0,1-2.87.34h-.17A6.94,6.94,0,0,1,1285.82,403.87Zm-22.62-5.23c4.72,0,9-3.37,12.49-6.92l.5-.67a2.14,2.14,0,0,0,.18-2.54,2.31,2.31,0,0,0-1.19-1c-.33-.17-.84,0-1-.17a1.27,1.27,0,0,0-.85-.17h-.5c-5.74,0-10.13,3.72-12.49,8.28a2.41,2.41,0,0,0-.17,1.85c.17.51.5.68,1,1.18a2.59,2.59,0,0,0,1.35.34C1262.86,398.81,1263,398.64,1263.2,398.64Z"/><path class="cls-1" d="M1326.69,410.8c-1-.34-1.69-1-1.86-3a14.91,14.91,0,0,1,2.7-6.08,2.78,2.78,0,0,1,2-.84,5.18,5.18,0,0,1,1.36.33c.67.17,1.51.68,1.68,2.37a9.15,9.15,0,0,1-.17,1.35,17.37,17.37,0,0,1-2.87,5.23,2.89,2.89,0,0,1-1.85,1A2.45,2.45,0,0,1,1326.69,410.8Z"/></g><g id="Layer_3" data-name="Layer 3"><path class="cls-1" d="M854.29,728.64q7-2.68,10.31-6a14.41,14.41,0,0,0,4.14-7.54,16,16,0,0,0-.9-8.82,14.91,14.91,0,0,0-6.59-8,15.38,15.38,0,0,0-9.92-1.81q-3.58.5-12.87,4l-11.1,4.21,2.06,5.44,5.58-2.1,9.83-3.72q5.73-2.18,8.57-2.13a9.09,9.09,0,0,1,5.23,1.77,9.65,9.65,0,0,1,3.45,4.52,10.15,10.15,0,0,1,.47,5.78,9.14,9.14,0,0,1-2.89,5q-2.26,2.07-7.85,4.19L842.18,727l-5.56,2.12,11.88,31.32,5.57-2.11-9.82-25.88,3.15-1.19,29.86,18.27,6.89-2.61Z"/><path class="cls-1" d="M879.42,719.11q7-2.68,10.3-6a14.33,14.33,0,0,0,4.15-7.54,16,16,0,0,0-.9-8.82,14.91,14.91,0,0,0-6.59-8,15.38,15.38,0,0,0-9.92-1.81q-3.59.49-12.87,4l-21.16,8,12.12,1.63,5.58-2.1L870,694.8c3.82-1.45,6.67-2.16,8.57-2.13a9,9,0,0,1,5.22,1.77A9.52,9.52,0,0,1,887.2,699a10.07,10.07,0,0,1,.48,5.78,9.14,9.14,0,0,1-2.89,5q-2.26,2.09-7.85,4.19l-9.63,3.57-5.56,2.13,11.87,31.31,5.57-2.11-9.81-25.88,3.15-1.19L902.38,740l6.89-2.61Z"/><path class="cls-2" d="M904.4,709.64q7-2.68,10.3-6a14.41,14.41,0,0,0,4.14-7.54,15.89,15.89,0,0,0-.9-8.82,14.86,14.86,0,0,0-6.59-8,15.36,15.36,0,0,0-9.92-1.81q-3.58.5-12.86,4l-21.16,8,12.12,1.63,5.57-2.1,9.83-3.72q5.73-2.18,8.57-2.13a9.07,9.07,0,0,1,5.23,1.77,9.65,9.65,0,0,1,3.45,4.52,10.07,10.07,0,0,1,.48,5.78,9.21,9.21,0,0,1-2.89,5q-2.28,2.09-7.85,4.19L892.29,708l-5.57,2.12,11.88,31.32,5.57-2.11-9.81-25.88,3.14-1.19,29.86,18.27,6.89-2.61Z"/><path class="cls-2" d="M829.16,738.17q7-2.68,10.31-6a14.35,14.35,0,0,0,4.14-7.53,16,16,0,0,0-.9-8.82,14.91,14.91,0,0,0-6.59-8A15.36,15.36,0,0,0,826.2,706q-3.59.5-12.87,4l-11.1,4.21,2.07,5.43,5.57-2.09,9.83-3.72q5.73-2.18,8.57-2.13a9,9,0,0,1,5.23,1.77A9.65,9.65,0,0,1,837,718a10.06,10.06,0,0,1,.47,5.78,9.19,9.19,0,0,1-2.88,5q-2.28,2.07-7.86,4.19l-9.62,3.57-5.57,2.12L823.37,770l5.57-2.11L819.12,742l3.15-1.19,29.86,18.27,6.89-2.61Z"/></g><g id="Layer_4" data-name="Layer 4"><path class="cls-1" d="M672.41,796q7-2.7,10.31-6a14.38,14.38,0,0,0,4.14-7.54,15.94,15.94,0,0,0-.9-8.81,14.83,14.83,0,0,0-6.59-8,15.37,15.37,0,0,0-9.92-1.82q-3.59.5-12.86,4L645.48,772l2.07,5.44,5.57-2.09,9.83-3.73q5.73-2.18,8.57-2.12a9.06,9.06,0,0,1,5.23,1.76,9.7,9.7,0,0,1,3.45,4.52,10.07,10.07,0,0,1,.47,5.78,9.19,9.19,0,0,1-2.88,5q-2.28,2.09-7.86,4.19l-9.62,3.57-5.57,2.13,11.88,31.31,5.57-2.11-9.82-25.88,3.15-1.19,29.86,18.28,6.89-2.62Z"/><path class="cls-1" d="M697.54,786.42q7-2.7,10.31-6a14.34,14.34,0,0,0,4.14-7.54,15.94,15.94,0,0,0-.9-8.81,14.87,14.87,0,0,0-6.59-8,15.38,15.38,0,0,0-9.92-1.82q-3.58.5-12.87,4l-21.15,8,12.11,1.62,5.58-2.09,9.83-3.73q5.73-2.18,8.57-2.12a9.08,9.08,0,0,1,5.23,1.76,9.7,9.7,0,0,1,3.45,4.52,10.16,10.16,0,0,1,.47,5.78,9.21,9.21,0,0,1-2.89,5q-2.26,2.07-7.85,4.18l-9.62,3.57-5.57,2.13,11.88,31.31,5.57-2.11-9.82-25.88,3.15-1.19,29.86,18.28,6.89-2.62Z"/><path class="cls-2" d="M722.52,777q7-2.7,10.3-6a14.2,14.2,0,0,0,4.14-7.54,15.93,15.93,0,0,0-.89-8.81,14.84,14.84,0,0,0-6.6-8,15.36,15.36,0,0,0-9.92-1.82q-3.59.5-12.86,4l-21.16,8,12.12,1.62,5.58-2.09,9.82-3.73q5.73-2.18,8.57-2.12a9,9,0,0,1,5.23,1.76,9.7,9.7,0,0,1,3.45,4.52,10.07,10.07,0,0,1,.48,5.78,9.27,9.27,0,0,1-2.89,5q-2.28,2.07-7.85,4.18l-9.63,3.57-5.56,2.13,11.87,31.31,5.57-2.11-9.81-25.88,3.15-1.19,29.85,18.28,6.89-2.62Z"/><path class="cls-2" d="M647.29,805.48q7-2.7,10.3-6a14.38,14.38,0,0,0,4.14-7.54,15.84,15.84,0,0,0-.9-8.81,14.85,14.85,0,0,0-6.59-8,15.36,15.36,0,0,0-9.92-1.81q-3.59.49-12.86,4l-11.1,4.21,2.06,5.44,5.57-2.09,9.83-3.73q5.73-2.17,8.57-2.13a9.14,9.14,0,0,1,5.23,1.77,9.65,9.65,0,0,1,3.45,4.52,10.07,10.07,0,0,1,.48,5.78,9.21,9.21,0,0,1-2.89,5q-2.28,2.08-7.85,4.19l-9.63,3.57L629.61,806l11.88,31.31,5.57-2.11-9.81-25.88,3.14-1.19,29.86,18.28,6.89-2.62Z"/><path class="cls-1" d="M486.41,860q7-2.7,10.31-6a14.38,14.38,0,0,0,4.14-7.54,15.94,15.94,0,0,0-.9-8.81,14.83,14.83,0,0,0-6.59-8,15.37,15.37,0,0,0-9.92-1.82q-3.58.5-12.86,4L459.48,836l2.07,5.44,5.57-2.09,9.83-3.73q5.73-2.18,8.57-2.12a9.06,9.06,0,0,1,5.23,1.76,9.7,9.7,0,0,1,3.45,4.52,10.07,10.07,0,0,1,.47,5.78,9.19,9.19,0,0,1-2.88,5q-2.28,2.09-7.86,4.19l-9.62,3.57-5.57,2.13,11.88,31.31,5.57-2.11-9.82-25.88,3.15-1.19,29.86,18.28,6.89-2.62Z"/><path class="cls-1" d="M511.54,850.42q7-2.7,10.31-6a14.34,14.34,0,0,0,4.14-7.54,15.94,15.94,0,0,0-.9-8.81,14.87,14.87,0,0,0-6.59-8,15.38,15.38,0,0,0-9.92-1.82q-3.58.5-12.87,4l-21.15,8,12.11,1.62,5.58-2.09,9.83-3.73q5.73-2.18,8.57-2.12a9.08,9.08,0,0,1,5.23,1.76,9.7,9.7,0,0,1,3.45,4.52,10.16,10.16,0,0,1,.47,5.78,9.21,9.21,0,0,1-2.89,5q-2.26,2.07-7.85,4.18l-9.62,3.57-5.57,2.13,11.88,31.31,5.57-2.11-9.82-25.88,3.15-1.19,29.86,18.28,6.89-2.62Z"/><path class="cls-2" d="M536.52,841q7-2.7,10.3-6a14.2,14.2,0,0,0,4.14-7.54,15.93,15.93,0,0,0-.89-8.81,14.84,14.84,0,0,0-6.6-8,15.36,15.36,0,0,0-9.92-1.82q-3.59.5-12.86,4l-21.16,8,12.12,1.62,5.58-2.09,9.82-3.73q5.73-2.18,8.57-2.12a9,9,0,0,1,5.23,1.76,9.7,9.7,0,0,1,3.45,4.52,10.07,10.07,0,0,1,.48,5.78,9.27,9.27,0,0,1-2.89,5q-2.28,2.07-7.85,4.18l-9.63,3.57-5.56,2.13,11.87,31.31,5.57-2.11-9.81-25.88,3.15-1.19,29.85,18.28,6.89-2.62Z"/><path class="cls-2" d="M461.29,869.48q7-2.7,10.3-6a14.38,14.38,0,0,0,4.14-7.54,15.84,15.84,0,0,0-.9-8.81,14.85,14.85,0,0,0-6.59-8,15.36,15.36,0,0,0-9.92-1.81q-3.58.49-12.86,4l-11.1,4.21,2.06,5.44,5.57-2.09,9.83-3.73q5.73-2.17,8.57-2.13a9.14,9.14,0,0,1,5.23,1.77,9.65,9.65,0,0,1,3.45,4.52,10.07,10.07,0,0,1,.48,5.78,9.21,9.21,0,0,1-2.89,5q-2.28,2.08-7.85,4.19l-9.63,3.57L443.61,870l11.88,31.31,5.57-2.11-9.81-25.88,3.14-1.19,29.86,18.28,6.89-2.62Z"/><path class="cls-1" d="M285.41,932q7-2.7,10.31-6a14.38,14.38,0,0,0,4.14-7.54,15.94,15.94,0,0,0-.9-8.81,14.83,14.83,0,0,0-6.59-8,15.37,15.37,0,0,0-9.92-1.82q-3.58.5-12.86,4L258.48,908l2.07,5.44,5.57-2.09,9.83-3.73q5.73-2.18,8.57-2.12a9.06,9.06,0,0,1,5.23,1.76,9.7,9.7,0,0,1,3.45,4.52,10.07,10.07,0,0,1,.47,5.78,9.19,9.19,0,0,1-2.88,5q-2.28,2.09-7.86,4.19l-9.62,3.57-5.57,2.13,11.88,31.31,5.57-2.11-9.82-25.88,3.15-1.19,29.86,18.28,6.89-2.62Z"/><path class="cls-1" d="M310.54,922.42q7-2.7,10.31-6a14.34,14.34,0,0,0,4.14-7.54,15.94,15.94,0,0,0-.9-8.81,14.87,14.87,0,0,0-6.59-8,15.38,15.38,0,0,0-9.92-1.82q-3.58.5-12.87,4l-21.15,8,12.11,1.62,5.58-2.09,9.83-3.73q5.73-2.18,8.57-2.12a9.08,9.08,0,0,1,5.23,1.76,9.7,9.7,0,0,1,3.45,4.52,10.16,10.16,0,0,1,.47,5.78,9.21,9.21,0,0,1-2.89,5q-2.27,2.07-7.85,4.18l-9.62,3.57-5.57,2.13,11.88,31.31,5.57-2.11-9.82-25.88,3.15-1.19,29.86,18.28,6.89-2.62Z"/><path class="cls-2" d="M335.52,913q7-2.7,10.3-6a14.2,14.2,0,0,0,4.14-7.54,15.93,15.93,0,0,0-.89-8.81,14.84,14.84,0,0,0-6.6-8,15.36,15.36,0,0,0-9.92-1.82q-3.58.5-12.86,4l-21.16,8,12.12,1.62,5.58-2.09,9.82-3.73q5.73-2.18,8.57-2.12a9,9,0,0,1,5.23,1.76,9.7,9.7,0,0,1,3.45,4.52,10.07,10.07,0,0,1,.48,5.78,9.27,9.27,0,0,1-2.89,5q-2.28,2.07-7.85,4.18l-9.63,3.57-5.56,2.13,11.87,31.31,5.57-2.11-9.81-25.88,3.15-1.19,29.85,18.28,6.89-2.62Z"/><path class="cls-2" d="M260.29,941.48q7-2.7,10.3-6a14.38,14.38,0,0,0,4.14-7.54,15.84,15.84,0,0,0-.9-8.81,14.85,14.85,0,0,0-6.59-8,15.36,15.36,0,0,0-9.92-1.81q-3.58.49-12.86,4l-11.1,4.21,2.06,5.44,5.57-2.09,9.83-3.73q5.73-2.17,8.57-2.13a9.14,9.14,0,0,1,5.23,1.77,9.65,9.65,0,0,1,3.45,4.52,10.07,10.07,0,0,1,.48,5.78,9.21,9.21,0,0,1-2.89,5q-2.28,2.08-7.85,4.19l-9.63,3.57L242.61,942l11.88,31.31,5.57-2.11-9.81-25.88,3.14-1.19,29.86,18.28,6.89-2.62Z"/><path class="cls-1" d="M107.41,993q7-2.7,10.31-6a14.38,14.38,0,0,0,4.14-7.54,15.94,15.94,0,0,0-.9-8.81,14.83,14.83,0,0,0-6.59-8,15.37,15.37,0,0,0-9.92-1.82q-3.58.5-12.86,4L80.48,969l2.07,5.44,5.57-2.09L98,968.63q5.73-2.18,8.57-2.12a9.06,9.06,0,0,1,5.23,1.76,9.7,9.7,0,0,1,3.45,4.52,10.07,10.07,0,0,1,.47,5.78,9.19,9.19,0,0,1-2.88,5q-2.28,2.09-7.86,4.19l-9.62,3.57-5.57,2.13,11.88,31.31,5.57-2.11-9.82-25.88,3.15-1.19,29.86,18.28,6.89-2.62Z"/><path class="cls-1" d="M132.54,983.42q7-2.7,10.31-6a14.34,14.34,0,0,0,4.14-7.54,15.94,15.94,0,0,0-.9-8.81,14.87,14.87,0,0,0-6.59-8,15.38,15.38,0,0,0-9.92-1.82q-3.59.5-12.87,4l-21.15,8,12.11,1.62,5.58-2.09,9.83-3.73q5.73-2.18,8.57-2.12a9.08,9.08,0,0,1,5.23,1.76,9.7,9.7,0,0,1,3.45,4.52,10.16,10.16,0,0,1,.47,5.78,9.21,9.21,0,0,1-2.89,5q-2.26,2.07-7.85,4.18l-9.62,3.57-5.57,2.13,11.88,31.31,5.57-2.11-9.82-25.88,3.15-1.19,29.86,18.28,6.89-2.62Z"/><path class="cls-2" d="M157.52,974q7-2.7,10.3-6a14.2,14.2,0,0,0,4.14-7.54,15.93,15.93,0,0,0-.89-8.81,14.84,14.84,0,0,0-6.6-8,15.36,15.36,0,0,0-9.92-1.82q-3.59.5-12.86,4l-21.16,8,12.12,1.62,5.58-2.09,9.82-3.73q5.73-2.18,8.57-2.12a9,9,0,0,1,5.23,1.76,9.7,9.7,0,0,1,3.45,4.52,10.07,10.07,0,0,1,.48,5.78,9.27,9.27,0,0,1-2.89,5q-2.28,2.07-7.85,4.18l-9.63,3.57-5.56,2.13,11.87,31.31,5.57-2.11-9.81-25.88,3.15-1.19,29.85,18.28,6.89-2.62Z"/><path class="cls-2" d="M82.29,1002.48q7-2.7,10.3-6A14.38,14.38,0,0,0,96.73,989a15.84,15.84,0,0,0-.9-8.81,14.85,14.85,0,0,0-6.59-8,15.36,15.36,0,0,0-9.92-1.81q-3.58.49-12.86,4l-11.1,4.21L57.42,984,63,981.89l9.83-3.73Q78.55,976,81.39,976a9.14,9.14,0,0,1,5.23,1.77,9.65,9.65,0,0,1,3.45,4.52,10.07,10.07,0,0,1,.48,5.78,9.21,9.21,0,0,1-2.89,5q-2.28,2.08-7.85,4.19l-9.63,3.57L64.61,1003l11.88,31.31,5.57-2.11-9.81-25.88,3.14-1.19,29.86,18.28,6.89-2.62Z"/><path class="cls-1" d="M1045.41,663q7-2.7,10.31-6a14.38,14.38,0,0,0,4.14-7.54,15.94,15.94,0,0,0-.9-8.81,14.83,14.83,0,0,0-6.59-8,15.37,15.37,0,0,0-9.92-1.82q-3.59.5-12.86,4L1018.48,639l2.07,5.44,5.57-2.09,9.83-3.73q5.73-2.18,8.57-2.12a9.06,9.06,0,0,1,5.23,1.76,9.7,9.7,0,0,1,3.45,4.52,10.07,10.07,0,0,1,.47,5.78,9.19,9.19,0,0,1-2.88,5q-2.28,2.09-7.86,4.19l-9.62,3.57-5.57,2.13,11.88,31.31,5.57-2.11-9.82-25.88,3.15-1.19,29.86,18.28,6.89-2.62Z"/><path class="cls-1" d="M1070.54,653.42q7-2.7,10.31-6a14.34,14.34,0,0,0,4.14-7.54,15.94,15.94,0,0,0-.9-8.81,14.87,14.87,0,0,0-6.59-8,15.38,15.38,0,0,0-9.92-1.82q-3.58.5-12.87,4l-21.15,8,12.11,1.62,5.58-2.09,9.83-3.73q5.73-2.18,8.57-2.12a9.08,9.08,0,0,1,5.23,1.76,9.7,9.7,0,0,1,3.45,4.52,10.16,10.16,0,0,1,.47,5.78,9.21,9.21,0,0,1-2.89,5q-2.27,2.07-7.85,4.18l-9.62,3.57-5.57,2.13,11.88,31.31,5.57-2.11-9.82-25.88,3.15-1.19,29.86,18.28,6.89-2.62Z"/><path class="cls-2" d="M1095.52,644q7-2.7,10.3-6a14.2,14.2,0,0,0,4.14-7.54,15.93,15.93,0,0,0-.89-8.81,14.84,14.84,0,0,0-6.6-8,15.36,15.36,0,0,0-9.92-1.82q-3.58.5-12.86,4l-21.16,8,12.12,1.62,5.58-2.09,9.82-3.73q5.73-2.18,8.57-2.12a9,9,0,0,1,5.23,1.76,9.7,9.7,0,0,1,3.45,4.52,10.07,10.07,0,0,1,.48,5.78,9.27,9.27,0,0,1-2.89,5q-2.28,2.07-7.85,4.18l-9.63,3.57-5.56,2.13,11.87,31.31,5.57-2.11-9.81-25.88,3.15-1.19,29.85,18.28,6.89-2.62Z"/><path class="cls-2" d="M1020.29,672.48q7-2.7,10.3-6a14.38,14.38,0,0,0,4.14-7.54,15.84,15.84,0,0,0-.9-8.81,14.85,14.85,0,0,0-6.59-8,15.36,15.36,0,0,0-9.92-1.81q-3.59.49-12.86,4l-11.1,4.21,2.06,5.44,5.57-2.09,9.83-3.73q5.73-2.17,8.57-2.13a9.14,9.14,0,0,1,5.23,1.77,9.65,9.65,0,0,1,3.45,4.52,10.07,10.07,0,0,1,.48,5.78,9.21,9.21,0,0,1-2.89,5q-2.28,2.08-7.85,4.19l-9.63,3.57-5.57,2.13,11.88,31.31,5.57-2.11-9.81-25.88,3.14-1.19,29.86,18.28,6.89-2.62Z"/><path class="cls-1" d="M1224.41,593q7-2.7,10.31-6a14.38,14.38,0,0,0,4.14-7.54,15.94,15.94,0,0,0-.9-8.81,14.83,14.83,0,0,0-6.59-8,15.37,15.37,0,0,0-9.92-1.82q-3.59.5-12.86,4L1197.48,569l2.07,5.44,5.57-2.09,9.83-3.73q5.73-2.18,8.57-2.12a9.06,9.06,0,0,1,5.23,1.76,9.7,9.7,0,0,1,3.45,4.52,10.07,10.07,0,0,1,.47,5.78,9.19,9.19,0,0,1-2.88,5q-2.28,2.09-7.86,4.19l-9.62,3.57-5.57,2.13,11.88,31.31,5.57-2.11-9.82-25.88,3.15-1.19,29.86,18.28,6.89-2.62Z"/><path class="cls-1" d="M1249.54,583.42q7-2.7,10.31-6a14.34,14.34,0,0,0,4.14-7.54,15.94,15.94,0,0,0-.9-8.81,14.87,14.87,0,0,0-6.59-8,15.38,15.38,0,0,0-9.92-1.82q-3.58.5-12.87,4l-21.15,8,12.11,1.62,5.58-2.09,9.83-3.73q5.73-2.18,8.57-2.12a9.08,9.08,0,0,1,5.23,1.76,9.7,9.7,0,0,1,3.45,4.52,10.16,10.16,0,0,1,.47,5.78,9.21,9.21,0,0,1-2.89,5q-2.27,2.07-7.85,4.18l-9.62,3.57-5.57,2.13,11.88,31.31,5.57-2.11-9.82-25.88,3.15-1.19,29.86,18.28,6.89-2.62Z"/><path class="cls-2" d="M1274.52,574q7-2.7,10.3-6a14.2,14.2,0,0,0,4.14-7.54,15.93,15.93,0,0,0-.89-8.81,14.84,14.84,0,0,0-6.6-8,15.36,15.36,0,0,0-9.92-1.82q-3.58.5-12.86,4l-21.16,8,12.12,1.62,5.58-2.09,9.82-3.73q5.73-2.18,8.57-2.12a9,9,0,0,1,5.23,1.76,9.7,9.7,0,0,1,3.45,4.52,10.07,10.07,0,0,1,.48,5.78,9.27,9.27,0,0,1-2.89,5q-2.28,2.07-7.85,4.18l-9.63,3.57-5.56,2.13,11.87,31.31,5.57-2.11-9.81-25.88,3.15-1.19,29.85,18.28,6.89-2.62Z"/><path class="cls-2" d="M1199.29,602.48q7-2.7,10.3-6a14.38,14.38,0,0,0,4.14-7.54,15.84,15.84,0,0,0-.9-8.81,14.85,14.85,0,0,0-6.59-8,15.36,15.36,0,0,0-9.92-1.81q-3.58.49-12.86,4l-11.1,4.21,2.06,5.44,5.57-2.09,9.83-3.73q5.73-2.17,8.57-2.13a9.14,9.14,0,0,1,5.23,1.77,9.65,9.65,0,0,1,3.45,4.52,10.07,10.07,0,0,1,.48,5.78,9.21,9.21,0,0,1-2.89,5q-2.28,2.08-7.85,4.19l-9.63,3.57-5.57,2.13,11.88,31.31,5.57-2.11-9.81-25.88,3.14-1.19,29.86,18.28,6.89-2.62Z"/></g><g id="Layer_5" data-name="Layer 5"><path class="cls-1" d="M1060.63,818.28q7-2.7,10.3-6a14.28,14.28,0,0,0,4.14-7.53,15.87,15.87,0,0,0-.9-8.82,14.86,14.86,0,0,0-6.59-8,15.3,15.3,0,0,0-9.92-1.81q-3.59.48-12.86,4l-11.1,4.21,2.06,5.43,5.57-2.09,9.83-3.73c3.82-1.45,6.68-2.15,8.57-2.12a9.06,9.06,0,0,1,5.23,1.76,9.75,9.75,0,0,1,3.45,4.52,10.08,10.08,0,0,1,.48,5.78,9.2,9.2,0,0,1-2.89,5q-2.28,2.07-7.85,4.19l-9.63,3.56-5.57,2.13,11.88,31.32,5.57-2.12-9.81-25.87,3.14-1.2,29.86,18.28,6.89-2.61Z"/><path class="cls-1" d="M1085.75,808.75c4.67-1.8,8.1-3.78,10.31-6a14.35,14.35,0,0,0,4.14-7.53,16,16,0,0,0-.9-8.82,14.91,14.91,0,0,0-6.59-8,15.3,15.3,0,0,0-9.92-1.81q-3.58.48-12.86,4l-21.16,8,12.12,1.62,5.57-2.09,9.83-3.73q5.73-2.16,8.57-2.12a9,9,0,0,1,5.23,1.77,9.65,9.65,0,0,1,3.45,4.52,10.15,10.15,0,0,1,.48,5.78,9.27,9.27,0,0,1-2.89,5q-2.28,2.07-7.85,4.19l-9.63,3.56-5.57,2.13L1080,840.55l5.57-2.12-9.82-25.87,3.15-1.2,29.86,18.28,6.89-2.61Z"/><path class="cls-2" d="M1110.73,799.28q7-2.7,10.3-6a14.21,14.21,0,0,0,4.14-7.53,15.87,15.87,0,0,0-.89-8.82,14.88,14.88,0,0,0-6.6-8,15.29,15.29,0,0,0-9.92-1.81q-3.59.48-12.86,4l-21.16,8,12.12,1.62,5.58-2.09,9.83-3.73c3.81-1.44,6.67-2.15,8.56-2.12a9,9,0,0,1,5.23,1.77,9.67,9.67,0,0,1,3.45,4.51,10.11,10.11,0,0,1,.48,5.79,9.14,9.14,0,0,1-2.89,5q-2.28,2.07-7.85,4.19l-9.63,3.56-5.56,2.13,11.87,31.32,5.57-2.12-9.81-25.87,3.15-1.2,29.85,18.28,6.89-2.61Z"/><path class="cls-2" d="M1035.5,827.81q7-2.7,10.3-6a14.21,14.21,0,0,0,4.14-7.53,16,16,0,0,0-.89-8.82,14.92,14.92,0,0,0-6.6-8,15.29,15.29,0,0,0-9.92-1.81q-3.58.48-12.86,4l-11.1,4.2,2.06,5.44,5.58-2.09,9.82-3.73c3.82-1.45,6.68-2.15,8.57-2.12a9,9,0,0,1,5.23,1.76,9.75,9.75,0,0,1,3.45,4.52,10.08,10.08,0,0,1,.48,5.78,9.23,9.23,0,0,1-2.89,5q-2.28,2.07-7.85,4.19l-9.63,3.56-5.56,2.13,11.87,31.31,5.57-2.11-9.81-25.87,3.14-1.2,29.86,18.28,6.89-2.61Z"/><path class="cls-1" d="M878.75,885.58q7-2.69,10.3-6a14.28,14.28,0,0,0,4.14-7.54,16,16,0,0,0-.89-8.82,14.88,14.88,0,0,0-6.6-8,15.35,15.35,0,0,0-9.92-1.81q-3.59.5-12.86,4l-11.1,4.21,2.06,5.44,5.58-2.1,9.82-3.72q5.73-2.17,8.57-2.13a9,9,0,0,1,5.23,1.77,9.65,9.65,0,0,1,3.45,4.52,10.07,10.07,0,0,1,.48,5.78,9.21,9.21,0,0,1-2.89,5q-2.28,2.07-7.85,4.19l-9.63,3.57-5.56,2.12L873,917.38l5.57-2.11-9.81-25.88,3.15-1.19,29.85,18.27,6.89-2.61Z"/><path class="cls-1" d="M903.88,876.05q7-2.68,10.3-6a14.31,14.31,0,0,0,4.14-7.54,16,16,0,0,0-.89-8.82,14.92,14.92,0,0,0-6.6-8,15.36,15.36,0,0,0-9.92-1.81q-3.58.5-12.86,4l-21.16,8L879,857.56l5.57-2.1,9.83-3.72q5.73-2.18,8.57-2.13a9,9,0,0,1,5.23,1.77,9.65,9.65,0,0,1,3.45,4.52,10.07,10.07,0,0,1,.48,5.78,9.21,9.21,0,0,1-2.89,5q-2.28,2.08-7.85,4.19l-9.63,3.57-5.57,2.13,11.88,31.31,5.57-2.11-9.81-25.88,3.14-1.19,29.86,18.27,6.89-2.61Z"/><path class="cls-2" d="M928.85,866.58q7-2.69,10.3-6a14.28,14.28,0,0,0,4.14-7.54,15.88,15.88,0,0,0-.89-8.82,14.88,14.88,0,0,0-6.6-8,15.34,15.34,0,0,0-9.91-1.81q-3.58.5-12.87,4l-21.16,8L904,848.09l5.58-2.1,9.83-3.72c3.82-1.45,6.67-2.16,8.57-2.13a9,9,0,0,1,5.22,1.77,9.65,9.65,0,0,1,3.45,4.52,10.07,10.07,0,0,1,.48,5.78,9.14,9.14,0,0,1-2.89,5q-2.26,2.09-7.85,4.19l-9.63,3.57-5.56,2.12,11.87,31.32,5.57-2.11-9.81-25.88L922,869.2l29.85,18.27,6.89-2.61Z"/><path class="cls-2" d="M853.62,895.11q7-2.68,10.3-6a14.21,14.21,0,0,0,4.14-7.53,15.88,15.88,0,0,0-.89-8.82,14.88,14.88,0,0,0-6.6-8,15.35,15.35,0,0,0-9.92-1.81q-3.58.49-12.86,4l-11.1,4.21,2.06,5.43,5.58-2.09,9.83-3.72c3.81-1.45,6.67-2.16,8.56-2.13a9,9,0,0,1,5.23,1.77A9.65,9.65,0,0,1,861.4,875a10.07,10.07,0,0,1,.48,5.78,9.14,9.14,0,0,1-2.89,5q-2.28,2.07-7.85,4.19l-9.63,3.57L836,895.59l11.87,31.32,5.57-2.11-9.81-25.88,3.15-1.19L876.58,916l6.89-2.61Z"/><path class="cls-1" d="M692.75,949.58q7-2.69,10.3-6a14.28,14.28,0,0,0,4.14-7.54,16,16,0,0,0-.89-8.82,14.88,14.88,0,0,0-6.6-8,15.35,15.35,0,0,0-9.92-1.81q-3.59.5-12.86,4l-11.1,4.21,2.06,5.44,5.58-2.1,9.82-3.72q5.73-2.17,8.57-2.13a9,9,0,0,1,5.23,1.77,9.65,9.65,0,0,1,3.45,4.52,10.07,10.07,0,0,1,.48,5.78,9.21,9.21,0,0,1-2.89,5q-2.28,2.07-7.85,4.19l-9.63,3.57-5.56,2.12L687,981.38l5.57-2.11-9.81-25.88,3.15-1.19,29.85,18.27,6.89-2.61Z"/><path class="cls-1" d="M717.88,940.05q7-2.68,10.3-6a14.31,14.31,0,0,0,4.14-7.54,16,16,0,0,0-.89-8.82,14.92,14.92,0,0,0-6.6-8,15.36,15.36,0,0,0-9.92-1.81q-3.58.5-12.86,4l-21.16,8L693,921.56l5.57-2.1,9.83-3.72q5.73-2.18,8.57-2.13a9,9,0,0,1,5.23,1.77,9.65,9.65,0,0,1,3.45,4.52,10.07,10.07,0,0,1,.48,5.78,9.21,9.21,0,0,1-2.89,5q-2.28,2.08-7.85,4.19l-9.63,3.57-5.57,2.13,11.88,31.31,5.57-2.11-9.81-25.88,3.14-1.19,29.86,18.27,6.89-2.61Z"/><path class="cls-2" d="M742.85,930.58q7-2.69,10.3-6a14.28,14.28,0,0,0,4.14-7.54,15.88,15.88,0,0,0-.89-8.82,14.88,14.88,0,0,0-6.6-8,15.34,15.34,0,0,0-9.91-1.81q-3.58.5-12.87,4l-21.16,8L718,912.09l5.58-2.1,9.83-3.72c3.82-1.45,6.67-2.16,8.57-2.13a9,9,0,0,1,5.22,1.77,9.65,9.65,0,0,1,3.45,4.52,10.07,10.07,0,0,1,.48,5.78,9.14,9.14,0,0,1-2.89,5q-2.26,2.09-7.85,4.19l-9.63,3.57-5.56,2.12,11.87,31.32,5.57-2.11-9.81-25.88L736,933.2l29.85,18.27,6.89-2.61Z"/><path class="cls-2" d="M667.62,959.11q7-2.68,10.3-6a14.21,14.21,0,0,0,4.14-7.53,15.88,15.88,0,0,0-.89-8.82,14.88,14.88,0,0,0-6.6-8,15.35,15.35,0,0,0-9.92-1.81q-3.58.49-12.86,4l-11.1,4.21,2.06,5.43,5.58-2.09,9.83-3.72c3.81-1.45,6.67-2.16,8.56-2.13a9,9,0,0,1,5.23,1.77A9.65,9.65,0,0,1,675.4,939a10.07,10.07,0,0,1,.48,5.78,9.14,9.14,0,0,1-2.89,5q-2.28,2.07-7.85,4.19l-9.63,3.57L650,959.59l11.87,31.32,5.57-2.11-9.81-25.88,3.15-1.19L690.58,980l6.89-2.61Z"/><path class="cls-1" d="M491.75,1021.58q7-2.69,10.3-6a14.28,14.28,0,0,0,4.14-7.54,16,16,0,0,0-.89-8.82,14.88,14.88,0,0,0-6.6-8,15.35,15.35,0,0,0-9.92-1.81q-3.58.5-12.86,4l-11.1,4.21,2.06,5.44,5.58-2.1,9.82-3.72q5.73-2.17,8.57-2.13a9,9,0,0,1,5.23,1.77,9.65,9.65,0,0,1,3.45,4.52,10.07,10.07,0,0,1,.48,5.78,9.21,9.21,0,0,1-2.89,5q-2.28,2.07-7.85,4.19l-9.63,3.57-5.56,2.12L486,1053.38l5.57-2.11-9.81-25.88,3.15-1.19,29.85,18.27,6.89-2.61Z"/><path class="cls-1" d="M516.88,1012.05q7-2.68,10.3-6a14.31,14.31,0,0,0,4.14-7.54,16,16,0,0,0-.89-8.82,14.92,14.92,0,0,0-6.6-8,15.36,15.36,0,0,0-9.92-1.81q-3.58.5-12.86,4l-21.16,8L492,993.56l5.57-2.1,9.83-3.72q5.73-2.18,8.57-2.13a9,9,0,0,1,5.23,1.77,9.65,9.65,0,0,1,3.45,4.52,10.07,10.07,0,0,1,.48,5.78,9.21,9.21,0,0,1-2.89,5q-2.28,2.08-7.85,4.19l-9.63,3.57-5.57,2.13,11.88,31.31,5.57-2.11-9.81-25.88,3.14-1.19,29.86,18.27,6.89-2.61Z"/><path class="cls-2" d="M541.85,1002.58q7-2.69,10.3-6a14.28,14.28,0,0,0,4.14-7.54,15.88,15.88,0,0,0-.89-8.82,14.88,14.88,0,0,0-6.6-8,15.34,15.34,0,0,0-9.91-1.81q-3.58.5-12.87,4l-21.16,8L517,984.09l5.58-2.1,9.83-3.72c3.82-1.45,6.67-2.16,8.57-2.13a9,9,0,0,1,5.22,1.77,9.65,9.65,0,0,1,3.45,4.52,10.07,10.07,0,0,1,.48,5.78,9.14,9.14,0,0,1-2.89,5q-2.26,2.09-7.85,4.19l-9.63,3.57-5.56,2.12,11.87,31.32,5.57-2.11-9.81-25.88,3.15-1.19,29.85,18.27,6.89-2.61Z"/><path class="cls-2" d="M466.62,1031.11q7-2.68,10.3-6a14.21,14.21,0,0,0,4.14-7.53,15.88,15.88,0,0,0-.89-8.82,14.88,14.88,0,0,0-6.6-8,15.35,15.35,0,0,0-9.92-1.81q-3.58.49-12.86,4l-11.1,4.21,2.06,5.43,5.58-2.09,9.83-3.72c3.81-1.45,6.67-2.16,8.56-2.13a9,9,0,0,1,5.23,1.77,9.65,9.65,0,0,1,3.45,4.52,10.07,10.07,0,0,1,.48,5.78,9.14,9.14,0,0,1-2.89,5q-2.28,2.07-7.85,4.19l-9.63,3.57-5.56,2.12,11.87,31.32,5.57-2.11-9.81-25.88,3.15-1.19L489.58,1052l6.89-2.61Z"/><path class="cls-1" d="M313.75,1082.58q7-2.68,10.3-6a14.28,14.28,0,0,0,4.14-7.54,16,16,0,0,0-.89-8.82,14.88,14.88,0,0,0-6.6-8,15.35,15.35,0,0,0-9.92-1.81q-3.58.49-12.86,4l-11.1,4.21,2.06,5.44,5.58-2.1,9.82-3.72q5.73-2.18,8.57-2.13a9,9,0,0,1,5.23,1.77,9.65,9.65,0,0,1,3.45,4.52,10.07,10.07,0,0,1,.48,5.78,9.21,9.21,0,0,1-2.89,5q-2.28,2.07-7.85,4.19l-9.63,3.57-5.56,2.12L308,1114.38l5.57-2.11-9.81-25.88,3.15-1.19,29.85,18.27,6.89-2.61Z"/><path class="cls-1" d="M338.88,1073.05q7-2.68,10.3-6a14.31,14.31,0,0,0,4.14-7.54,16,16,0,0,0-.89-8.82,14.92,14.92,0,0,0-6.6-8,15.36,15.36,0,0,0-9.92-1.81q-3.59.49-12.86,4l-21.16,8,12.12,1.63,5.57-2.1,9.83-3.72q5.73-2.17,8.57-2.13a9,9,0,0,1,5.23,1.77,9.65,9.65,0,0,1,3.45,4.52,10.07,10.07,0,0,1,.48,5.78,9.21,9.21,0,0,1-2.89,5q-2.28,2.08-7.85,4.19l-9.63,3.57-5.57,2.13,11.88,31.31,5.57-2.11-9.81-25.88,3.14-1.19,29.86,18.27,6.89-2.61Z"/><path class="cls-2" d="M363.85,1063.58q7-2.68,10.3-6a14.28,14.28,0,0,0,4.14-7.54,15.88,15.88,0,0,0-.89-8.82,14.88,14.88,0,0,0-6.6-8,15.34,15.34,0,0,0-9.91-1.81q-3.58.49-12.87,4l-21.16,8,12.12,1.63,5.58-2.1,9.83-3.72c3.82-1.45,6.67-2.16,8.57-2.13a9,9,0,0,1,5.22,1.77,9.65,9.65,0,0,1,3.45,4.52,10.07,10.07,0,0,1,.48,5.78,9.14,9.14,0,0,1-2.89,5q-2.27,2.08-7.85,4.19l-9.63,3.57-5.56,2.12,11.87,31.32,5.57-2.11-9.81-25.88,3.15-1.19,29.85,18.27,6.89-2.61Z"/><path class="cls-2" d="M288.62,1092.11q7-2.68,10.3-6a14.21,14.21,0,0,0,4.14-7.53,15.88,15.88,0,0,0-.89-8.82,14.88,14.88,0,0,0-6.6-8,15.35,15.35,0,0,0-9.92-1.81q-3.58.49-12.86,4l-11.1,4.21,2.06,5.43,5.58-2.09,9.83-3.72c3.81-1.45,6.67-2.16,8.56-2.13a9,9,0,0,1,5.23,1.77,9.65,9.65,0,0,1,3.45,4.52,10.07,10.07,0,0,1,.48,5.78,9.14,9.14,0,0,1-2.89,5q-2.28,2.07-7.85,4.19l-9.63,3.57-5.56,2.12,11.87,31.32,5.57-2.11-9.81-25.88,3.15-1.19L311.58,1113l6.89-2.61Z"/><path class="cls-1" d="M1251.75,752.58q7-2.69,10.3-6a14.28,14.28,0,0,0,4.14-7.54,16,16,0,0,0-.89-8.82,14.88,14.88,0,0,0-6.6-8,15.35,15.35,0,0,0-9.92-1.81q-3.58.5-12.86,4l-11.1,4.21,2.06,5.44,5.58-2.1,9.82-3.72q5.73-2.17,8.57-2.13a9,9,0,0,1,5.23,1.77,9.65,9.65,0,0,1,3.45,4.52,10.07,10.07,0,0,1,.48,5.78,9.21,9.21,0,0,1-2.89,5q-2.28,2.07-7.85,4.19l-9.63,3.57-5.56,2.12L1246,784.38l5.57-2.11-9.81-25.88,3.15-1.19,29.85,18.27,6.89-2.61Z"/><path class="cls-1" d="M1276.88,743.05q7-2.68,10.3-6a14.31,14.31,0,0,0,4.14-7.54,16,16,0,0,0-.89-8.82,14.92,14.92,0,0,0-6.6-8,15.36,15.36,0,0,0-9.92-1.81q-3.59.5-12.86,4l-21.16,8,12.12,1.63,5.57-2.1,9.83-3.72q5.73-2.18,8.57-2.13a9,9,0,0,1,5.23,1.77,9.65,9.65,0,0,1,3.45,4.52,10.07,10.07,0,0,1,.48,5.78,9.21,9.21,0,0,1-2.89,5q-2.28,2.08-7.85,4.19l-9.63,3.57-5.57,2.13,11.88,31.31,5.57-2.11-9.81-25.88,3.14-1.19,29.86,18.27,6.89-2.61Z"/><path class="cls-2" d="M1301.85,733.58q7-2.69,10.3-6a14.28,14.28,0,0,0,4.14-7.54,15.88,15.88,0,0,0-.89-8.82,14.88,14.88,0,0,0-6.6-8,15.34,15.34,0,0,0-9.91-1.81q-3.59.5-12.87,4l-21.16,8,12.12,1.63,5.58-2.1,9.83-3.72c3.82-1.45,6.67-2.16,8.57-2.13a9,9,0,0,1,5.22,1.77,9.65,9.65,0,0,1,3.45,4.52,10.07,10.07,0,0,1,.48,5.78,9.14,9.14,0,0,1-2.89,5q-2.27,2.09-7.85,4.19l-9.63,3.57-5.56,2.12,11.87,31.32,5.57-2.11-9.81-25.88,3.15-1.19,29.85,18.27,6.89-2.61Z"/><path class="cls-2" d="M1226.62,762.11q7-2.68,10.3-6a14.21,14.21,0,0,0,4.14-7.53,15.88,15.88,0,0,0-.89-8.82,14.88,14.88,0,0,0-6.6-8,15.35,15.35,0,0,0-9.92-1.81q-3.59.49-12.86,4l-11.1,4.21,2.06,5.43,5.58-2.09,9.83-3.72c3.81-1.45,6.67-2.16,8.56-2.13a9,9,0,0,1,5.23,1.77,9.65,9.65,0,0,1,3.45,4.52,10.07,10.07,0,0,1,.48,5.78,9.14,9.14,0,0,1-2.89,5q-2.28,2.07-7.85,4.19l-9.63,3.57-5.56,2.12,11.87,31.32,5.57-2.11-9.81-25.88,3.15-1.19L1249.58,783l6.89-2.61Z"/><path class="cls-1" d="M1430.75,682.58q7-2.69,10.3-6a14.28,14.28,0,0,0,4.14-7.54,16,16,0,0,0-.89-8.82,14.88,14.88,0,0,0-6.6-8,15.35,15.35,0,0,0-9.92-1.81q-3.58.5-12.86,4l-11.1,4.21,2.06,5.44,5.58-2.1,9.82-3.72q5.73-2.17,8.57-2.13a9,9,0,0,1,5.23,1.77,9.65,9.65,0,0,1,3.45,4.52,10.07,10.07,0,0,1,.48,5.78,9.21,9.21,0,0,1-2.89,5q-2.28,2.07-7.85,4.19l-9.63,3.57-5.56,2.12L1425,714.38l5.57-2.11-9.81-25.88,3.15-1.19,29.85,18.27,6.89-2.61Z"/><path class="cls-1" d="M1455.88,673.05q7-2.68,10.3-6a14.31,14.31,0,0,0,4.14-7.54,16,16,0,0,0-.89-8.82,14.92,14.92,0,0,0-6.6-8,15.36,15.36,0,0,0-9.92-1.81q-3.59.5-12.86,4l-21.16,8,12.12,1.63,5.57-2.1,9.83-3.72q5.73-2.18,8.57-2.13a9,9,0,0,1,5.23,1.77,9.65,9.65,0,0,1,3.45,4.52,10.07,10.07,0,0,1,.48,5.78,9.21,9.21,0,0,1-2.89,5q-2.28,2.08-7.85,4.19l-9.63,3.57-5.57,2.13,11.88,31.31,5.57-2.11-9.81-25.88,3.14-1.19,29.86,18.27,6.89-2.61Z"/><path class="cls-2" d="M1480.85,663.58q7-2.69,10.3-6a14.28,14.28,0,0,0,4.14-7.54,15.88,15.88,0,0,0-.89-8.82,14.88,14.88,0,0,0-6.6-8,15.34,15.34,0,0,0-9.91-1.81q-3.59.5-12.87,4l-21.16,8,12.12,1.63,5.58-2.1,9.83-3.72c3.82-1.45,6.67-2.16,8.57-2.13a9,9,0,0,1,5.22,1.77,9.65,9.65,0,0,1,3.45,4.52,10.07,10.07,0,0,1,.48,5.78,9.14,9.14,0,0,1-2.89,5q-2.27,2.09-7.85,4.19l-9.63,3.57-5.56,2.12,11.87,31.32,5.57-2.11-9.81-25.88,3.15-1.19,29.85,18.27,6.89-2.61Z"/><path class="cls-2" d="M1405.62,692.11q7-2.68,10.3-6a14.21,14.21,0,0,0,4.14-7.53,15.88,15.88,0,0,0-.89-8.82,14.88,14.88,0,0,0-6.6-8,15.35,15.35,0,0,0-9.92-1.81q-3.59.49-12.86,4l-11.1,4.21,2.06,5.43,5.58-2.09,9.83-3.72c3.81-1.45,6.67-2.16,8.56-2.13a9,9,0,0,1,5.23,1.77,9.65,9.65,0,0,1,3.45,4.52,10.07,10.07,0,0,1,.48,5.78,9.14,9.14,0,0,1-2.89,5q-2.28,2.07-7.85,4.19l-9.63,3.57-5.56,2.12,11.87,31.32,5.57-2.11-9.81-25.88,3.15-1.19L1428.58,713l6.89-2.61Z"/><path class="cls-1" d="M1241.63,930.28q7-2.7,10.3-6a14.28,14.28,0,0,0,4.14-7.53,15.87,15.87,0,0,0-.9-8.82,14.86,14.86,0,0,0-6.59-8,15.3,15.3,0,0,0-9.92-1.81q-3.59.48-12.86,4l-11.1,4.21,2.06,5.43,5.57-2.09,9.83-3.73c3.82-1.45,6.68-2.15,8.57-2.12a9.06,9.06,0,0,1,5.23,1.76,9.75,9.75,0,0,1,3.45,4.52,10.08,10.08,0,0,1,.48,5.78,9.2,9.2,0,0,1-2.89,5q-2.28,2.07-7.85,4.19l-9.63,3.56-5.57,2.13,11.88,31.32,5.57-2.12-9.81-25.87,3.14-1.2,29.86,18.28,6.89-2.61Z"/><path class="cls-1" d="M1266.75,920.75c4.67-1.8,8.1-3.78,10.31-6a14.35,14.35,0,0,0,4.14-7.53,16,16,0,0,0-.9-8.82,14.91,14.91,0,0,0-6.59-8,15.3,15.3,0,0,0-9.92-1.81q-3.58.48-12.86,4l-21.16,8,12.12,1.62,5.57-2.09,9.83-3.73q5.73-2.16,8.57-2.12a9,9,0,0,1,5.23,1.77,9.65,9.65,0,0,1,3.45,4.52,10.15,10.15,0,0,1,.48,5.78,9.27,9.27,0,0,1-2.89,5q-2.28,2.07-7.85,4.19l-9.63,3.56-5.57,2.13L1261,952.55l5.57-2.12-9.82-25.87,3.15-1.2,29.86,18.28,6.89-2.61Z"/><path class="cls-2" d="M1291.73,911.28q7-2.7,10.3-6a14.21,14.21,0,0,0,4.14-7.53,15.87,15.87,0,0,0-.89-8.82,14.88,14.88,0,0,0-6.6-8,15.29,15.29,0,0,0-9.92-1.81q-3.59.48-12.86,4l-21.16,8,12.12,1.62,5.58-2.09,9.83-3.73c3.81-1.44,6.67-2.15,8.56-2.12a9,9,0,0,1,5.23,1.77,9.67,9.67,0,0,1,3.45,4.51,10.11,10.11,0,0,1,.48,5.79,9.14,9.14,0,0,1-2.89,5q-2.28,2.07-7.85,4.19l-9.63,3.56-5.56,2.13,11.87,31.32,5.57-2.12-9.81-25.87,3.15-1.2,29.85,18.28,6.89-2.61Z"/><path class="cls-2" d="M1216.5,939.81q7-2.7,10.3-6a14.21,14.21,0,0,0,4.14-7.53,16,16,0,0,0-.89-8.82,14.92,14.92,0,0,0-6.6-8,15.29,15.29,0,0,0-9.92-1.81q-3.58.48-12.86,4l-11.1,4.2,2.06,5.44,5.58-2.09,9.82-3.73c3.82-1.45,6.68-2.15,8.57-2.12a9,9,0,0,1,5.23,1.76,9.75,9.75,0,0,1,3.45,4.52,10.08,10.08,0,0,1,.48,5.78,9.23,9.23,0,0,1-2.89,5q-2.28,2.07-7.85,4.19l-9.63,3.56-5.56,2.13,11.87,31.31,5.57-2.11-9.81-25.87,3.14-1.2,29.86,18.28,6.89-2.61Z"/><path class="cls-1" d="M1059.75,997.58q7-2.69,10.3-6a14.28,14.28,0,0,0,4.14-7.54,16,16,0,0,0-.89-8.82,14.88,14.88,0,0,0-6.6-8,15.35,15.35,0,0,0-9.92-1.81q-3.58.5-12.86,4l-11.1,4.21,2.06,5.44,5.58-2.1,9.82-3.72q5.73-2.17,8.57-2.13a9,9,0,0,1,5.23,1.77,9.65,9.65,0,0,1,3.45,4.52,10.07,10.07,0,0,1,.48,5.78,9.21,9.21,0,0,1-2.89,5q-2.28,2.07-7.85,4.19l-9.63,3.57-5.56,2.12,11.87,31.32,5.57-2.11-9.81-25.88,3.15-1.19,29.85,18.27,6.89-2.61Z"/><path class="cls-1" d="M1084.88,988.05q7-2.68,10.3-6a14.31,14.31,0,0,0,4.14-7.54,16,16,0,0,0-.89-8.82,14.92,14.92,0,0,0-6.6-8,15.36,15.36,0,0,0-9.92-1.81q-3.59.5-12.86,4l-21.16,8,12.12,1.63,5.57-2.1,9.83-3.72q5.73-2.18,8.57-2.13a9,9,0,0,1,5.23,1.77,9.65,9.65,0,0,1,3.45,4.52,10.07,10.07,0,0,1,.48,5.78,9.21,9.21,0,0,1-2.89,5q-2.28,2.08-7.85,4.19l-9.63,3.57-5.57,2.13,11.88,31.31,5.57-2.11-9.81-25.88,3.14-1.19,29.86,18.27,6.89-2.61Z"/><path class="cls-2" d="M1109.85,978.58q7-2.69,10.3-6a14.28,14.28,0,0,0,4.14-7.54,15.88,15.88,0,0,0-.89-8.82,14.88,14.88,0,0,0-6.6-8,15.34,15.34,0,0,0-9.91-1.81q-3.59.5-12.87,4l-21.16,8,12.12,1.63,5.58-2.1,9.83-3.72c3.82-1.45,6.67-2.16,8.57-2.13a9,9,0,0,1,5.22,1.77,9.65,9.65,0,0,1,3.45,4.52,10.07,10.07,0,0,1,.48,5.78,9.14,9.14,0,0,1-2.89,5q-2.27,2.09-7.85,4.19l-9.63,3.57-5.56,2.12,11.87,31.32,5.57-2.11-9.81-25.88,3.15-1.19,29.85,18.27,6.89-2.61Z"/><path class="cls-2" d="M1034.62,1007.11q7-2.68,10.3-6a14.21,14.21,0,0,0,4.14-7.53,15.88,15.88,0,0,0-.89-8.82,14.88,14.88,0,0,0-6.6-8,15.35,15.35,0,0,0-9.92-1.81q-3.59.49-12.86,4l-11.1,4.21,2.06,5.43,5.58-2.09,9.83-3.72c3.81-1.45,6.67-2.16,8.56-2.13a9,9,0,0,1,5.23,1.77,9.65,9.65,0,0,1,3.45,4.52,10.07,10.07,0,0,1,.48,5.78,9.14,9.14,0,0,1-2.89,5q-2.28,2.07-7.85,4.19l-9.63,3.57-5.56,2.12,11.87,31.32,5.57-2.11-9.81-25.88,3.15-1.19,29.85,18.27,6.89-2.61Z"/><path class="cls-1" d="M873.75,1061.58q7-2.68,10.3-6a14.28,14.28,0,0,0,4.14-7.54,16,16,0,0,0-.89-8.82,14.88,14.88,0,0,0-6.6-8,15.35,15.35,0,0,0-9.92-1.81q-3.59.49-12.86,4l-11.1,4.21,2.06,5.44,5.58-2.1,9.82-3.72q5.73-2.18,8.57-2.13a9,9,0,0,1,5.23,1.77,9.65,9.65,0,0,1,3.45,4.52,10.07,10.07,0,0,1,.48,5.78,9.21,9.21,0,0,1-2.89,5q-2.28,2.07-7.85,4.19l-9.63,3.57-5.56,2.12L868,1093.38l5.57-2.11-9.81-25.88,3.15-1.19,29.85,18.27,6.89-2.61Z"/><path class="cls-1" d="M898.88,1052.05q7-2.68,10.3-6a14.31,14.31,0,0,0,4.14-7.54,16,16,0,0,0-.89-8.82,14.92,14.92,0,0,0-6.6-8,15.36,15.36,0,0,0-9.92-1.81q-3.58.5-12.86,4l-21.16,8,12.12,1.63,5.57-2.1,9.83-3.72q5.73-2.17,8.57-2.13a9,9,0,0,1,5.23,1.77,9.65,9.65,0,0,1,3.45,4.52,10.07,10.07,0,0,1,.48,5.78,9.21,9.21,0,0,1-2.89,5q-2.28,2.08-7.85,4.19l-9.63,3.57-5.57,2.13,11.88,31.31,5.57-2.11-9.81-25.88,3.14-1.19,29.86,18.27,6.89-2.61Z"/><path class="cls-2" d="M923.85,1042.58q7-2.68,10.3-6a14.28,14.28,0,0,0,4.14-7.54,15.88,15.88,0,0,0-.89-8.82,14.88,14.88,0,0,0-6.6-8,15.34,15.34,0,0,0-9.91-1.81q-3.58.5-12.87,4l-21.16,8,12.12,1.63,5.58-2.1,9.83-3.72c3.82-1.45,6.67-2.16,8.57-2.13a9,9,0,0,1,5.22,1.77,9.65,9.65,0,0,1,3.45,4.52,10.07,10.07,0,0,1,.48,5.78,9.14,9.14,0,0,1-2.89,5q-2.26,2.08-7.85,4.19l-9.63,3.57-5.56,2.12,11.87,31.32,5.57-2.11-9.81-25.88,3.15-1.19,29.85,18.27,6.89-2.61Z"/><path class="cls-2" d="M848.62,1071.11q7-2.68,10.3-6a14.21,14.21,0,0,0,4.14-7.53,15.88,15.88,0,0,0-.89-8.82,14.88,14.88,0,0,0-6.6-8,15.35,15.35,0,0,0-9.92-1.81q-3.58.49-12.86,4l-11.1,4.21,2.06,5.43,5.58-2.09,9.83-3.72c3.81-1.45,6.67-2.16,8.56-2.13a9,9,0,0,1,5.23,1.77,9.65,9.65,0,0,1,3.45,4.52,10.07,10.07,0,0,1,.48,5.78,9.14,9.14,0,0,1-2.89,5q-2.28,2.07-7.85,4.19l-9.63,3.57-5.56,2.12,11.87,31.32,5.57-2.11-9.81-25.88,3.15-1.19L871.58,1092l6.89-2.61Z"/><path class="cls-2" d="M722.85,1114.58q7-2.68,10.3-6a14.28,14.28,0,0,0,4.14-7.54,15.88,15.88,0,0,0-.89-8.82,14.88,14.88,0,0,0-6.6-8,15.34,15.34,0,0,0-9.91-1.81q-3.58.49-12.87,4l-21.16,8,12.12,1.63,5.58-2.1,9.83-3.72c3.82-1.45,6.67-2.16,8.57-2.13a9,9,0,0,1,5.22,1.77,9.65,9.65,0,0,1,3.45,4.52,10.07,10.07,0,0,1,.48,5.78,9.14,9.14,0,0,1-2.89,5q-2.26,2.08-7.85,4.19l-9.63,3.57-5.56,2.12,11.87,31.32,5.57-2.11-9.81-25.88,3.15-1.19,29.85,18.27,6.89-2.61Z"/><path class="cls-1" d="M1432.75,864.58q7-2.69,10.3-6a14.28,14.28,0,0,0,4.14-7.54,16,16,0,0,0-.89-8.82,14.88,14.88,0,0,0-6.6-8,15.35,15.35,0,0,0-9.92-1.81q-3.58.5-12.86,4l-11.1,4.21,2.06,5.44,5.58-2.1,9.82-3.72q5.73-2.17,8.57-2.13a9,9,0,0,1,5.23,1.77,9.65,9.65,0,0,1,3.45,4.52,10.07,10.07,0,0,1,.48,5.78,9.21,9.21,0,0,1-2.89,5q-2.28,2.07-7.85,4.19l-9.63,3.57-5.56,2.12L1427,896.38l5.57-2.11-9.81-25.88,3.15-1.19,29.85,18.27,6.89-2.61Z"/><path class="cls-1" d="M1457.88,855.05q7-2.68,10.3-6a14.31,14.31,0,0,0,4.14-7.54,16,16,0,0,0-.89-8.82,14.92,14.92,0,0,0-6.6-8,15.36,15.36,0,0,0-9.92-1.81q-3.59.5-12.86,4l-21.16,8,12.12,1.63,5.57-2.1,9.83-3.72q5.73-2.18,8.57-2.13a9,9,0,0,1,5.23,1.77,9.65,9.65,0,0,1,3.45,4.52,10.07,10.07,0,0,1,.48,5.78,9.21,9.21,0,0,1-2.89,5q-2.28,2.08-7.85,4.19l-9.63,3.57-5.57,2.13,11.88,31.31,5.57-2.11-9.81-25.88,3.14-1.19,29.86,18.27,6.89-2.61Z"/><path class="cls-2" d="M1482.85,845.58q7-2.69,10.3-6a14.28,14.28,0,0,0,4.14-7.54,15.88,15.88,0,0,0-.89-8.82,14.88,14.88,0,0,0-6.6-8,15.34,15.34,0,0,0-9.91-1.81q-3.59.5-12.87,4l-21.16,8,12.12,1.63,5.58-2.1,9.83-3.72c3.82-1.45,6.67-2.16,8.57-2.13a9,9,0,0,1,5.22,1.77,9.65,9.65,0,0,1,3.45,4.52,10.07,10.07,0,0,1,.48,5.78,9.14,9.14,0,0,1-2.89,5q-2.27,2.09-7.85,4.19l-9.63,3.57-5.56,2.12,11.87,31.32,5.57-2.11-9.81-25.88,3.15-1.19,29.85,18.27,6.89-2.61Z"/><path class="cls-2" d="M1407.62,874.11q7-2.68,10.3-6a14.21,14.21,0,0,0,4.14-7.53,15.88,15.88,0,0,0-.89-8.82,14.88,14.88,0,0,0-6.6-8,15.35,15.35,0,0,0-9.92-1.81q-3.59.49-12.86,4l-11.1,4.21,2.06,5.43,5.58-2.09,9.83-3.72c3.81-1.45,6.67-2.16,8.56-2.13a9,9,0,0,1,5.23,1.77,9.65,9.65,0,0,1,3.45,4.52,10.07,10.07,0,0,1,.48,5.78,9.14,9.14,0,0,1-2.89,5q-2.28,2.07-7.85,4.19l-9.63,3.57-5.56,2.12,11.87,31.32,5.57-2.11-9.81-25.88,3.15-1.19L1430.58,895l6.89-2.61Z"/><path class="cls-1" d="M1611.75,794.58q7-2.69,10.3-6a14.28,14.28,0,0,0,4.14-7.54,16,16,0,0,0-.89-8.82,14.88,14.88,0,0,0-6.6-8,15.35,15.35,0,0,0-9.92-1.81q-3.58.5-12.86,4l-11.1,4.21,2.06,5.44,5.58-2.1,9.82-3.72q5.73-2.17,8.57-2.13a9,9,0,0,1,5.23,1.77,9.65,9.65,0,0,1,3.45,4.52,10.07,10.07,0,0,1,.48,5.78,9.21,9.21,0,0,1-2.89,5q-2.28,2.07-7.85,4.19l-9.63,3.57-5.56,2.12L1606,826.38l5.57-2.11-9.81-25.88,3.15-1.19,29.85,18.27,6.89-2.61Z"/><path class="cls-1" d="M1636.88,785.05q7-2.68,10.3-6a14.31,14.31,0,0,0,4.14-7.54,16,16,0,0,0-.89-8.82,14.92,14.92,0,0,0-6.6-8,15.36,15.36,0,0,0-9.92-1.81q-3.59.5-12.86,4l-21.16,8,12.12,1.63,5.57-2.1,9.83-3.72q5.73-2.18,8.57-2.13a9,9,0,0,1,5.23,1.77,9.65,9.65,0,0,1,3.45,4.52,10.07,10.07,0,0,1,.48,5.78,9.21,9.21,0,0,1-2.89,5q-2.28,2.08-7.85,4.19l-9.63,3.57-5.57,2.13,11.88,31.31,5.57-2.11-9.81-25.88,3.14-1.19,29.86,18.27,6.89-2.61Z"/><path class="cls-2" d="M1661.85,775.58q7-2.69,10.3-6a14.28,14.28,0,0,0,4.14-7.54,15.88,15.88,0,0,0-.89-8.82,14.88,14.88,0,0,0-6.6-8,15.34,15.34,0,0,0-9.91-1.81q-3.59.5-12.87,4l-21.16,8,12.12,1.63,5.58-2.1,9.83-3.72c3.82-1.45,6.67-2.16,8.57-2.13a9,9,0,0,1,5.22,1.77,9.65,9.65,0,0,1,3.45,4.52,10.07,10.07,0,0,1,.48,5.78,9.14,9.14,0,0,1-2.89,5q-2.27,2.09-7.85,4.19l-9.63,3.57-5.56,2.12,11.87,31.32,5.57-2.11-9.81-25.88,3.15-1.19,29.85,18.27,6.89-2.61Z"/><path class="cls-2" d="M1586.62,804.11q7-2.68,10.3-6a14.21,14.21,0,0,0,4.14-7.53,15.88,15.88,0,0,0-.89-8.82,14.88,14.88,0,0,0-6.6-8,15.35,15.35,0,0,0-9.92-1.81q-3.59.49-12.86,4l-11.1,4.21,2.06,5.43,5.58-2.09,9.83-3.72c3.81-1.45,6.67-2.16,8.56-2.13a9,9,0,0,1,5.23,1.77,9.65,9.65,0,0,1,3.45,4.52,10.07,10.07,0,0,1,.48,5.78,9.14,9.14,0,0,1-2.89,5q-2.28,2.07-7.85,4.19l-9.63,3.57-5.56,2.12,11.87,31.32,5.57-2.11-9.81-25.88,3.15-1.19L1609.58,825l6.89-2.61Z"/></g></svg>