<?xml version="1.0" standalone="no"?>
<!DOCTYPE svg PUBLIC "-//W3C//DTD SVG 20010904//EN"
 "http://www.w3.org/TR/2001/REC-SVG-20010904/DTD/svg10.dtd">
<svg version="1.0" xmlns="http://www.w3.org/2000/svg"
 width="500.000000pt" height="500.000000pt" viewBox="0 0 500.000000 500.000000"
 preserveAspectRatio="xMidYMid meet">

<g transform="translate(0.000000,500.000000) scale(0.100000,-0.100000)"
fill="#fff" stroke="none">
<path d="M2245 4780 c-196 -21 -483 -99 -676 -185 -181 -79 -378 -203 -534
-334 -386 -326 -637 -726 -760 -1211 -53 -209 -59 -269 -59 -550 -1 -279 7
-343 64 -570 66 -260 195 -541 344 -748 110 -153 265 -320 411 -442 118 -99
141 -115 268 -194 249 -154 508 -250 847 -313 121 -22 562 -25 680 -4 603 106
1072 372 1438 817 271 328 413 644 499 1104 25 136 25 564 0 700 -48 259 -125
496 -222 690 -32 62 -147 251 -179 293 -201 263 -411 460 -656 613 -255 160
-519 259 -855 320 -105 19 -484 28 -610 14z m219 -262 c3 -29 6 -85 6 -124 0
-68 -1 -72 -25 -76 -21 -4 -30 4 -65 61 l-40 66 0 -67 c0 -65 -1 -68 -24 -68
-21 0 -24 5 -29 68 -4 37 -7 93 -7 125 0 56 1 57 28 57 22 0 32 -9 54 -48 51
-90 53 -90 50 -12 -4 68 -3 70 21 70 22 0 25 -5 31 -52z m241 37 c57 -23 73
-95 21 -95 -18 0 -26 6 -28 21 -4 31 -32 46 -52 30 -17 -15 -31 -90 -22 -125
10 -40 59 -45 69 -6 3 13 11 16 31 13 14 -3 26 -11 26 -18 0 -21 -41 -65 -61
-65 -10 0 -19 -4 -19 -10 0 -5 5 -10 10 -10 6 0 10 -9 10 -20 0 -21 -40 -38
-59 -25 -18 11 -12 25 12 26 18 1 18 2 4 6 -11 3 -16 11 -13 19 3 8 -1 14 -9
14 -30 0 -55 50 -55 110 0 79 16 119 54 136 39 17 40 17 81 -1z m-542 -35 c6
-23 5 -25 -49 -39 -36 -10 -41 -14 -37 -35 4 -21 8 -23 41 -15 42 9 52 5 52
-21 0 -14 -10 -20 -40 -25 -37 -6 -39 -9 -34 -33 4 -15 8 -28 8 -29 1 -1 19 2
40 8 45 13 66 6 66 -20 0 -16 -11 -21 -71 -31 -39 -7 -75 -8 -79 -4 -5 5 -16
50 -24 99 -9 50 -19 100 -22 112 -5 19 0 23 33 32 35 9 73 16 99 20 7 0 14 -8
17 -19z m759 5 c3 -3 -3 -45 -13 -93 -10 -48 -18 -92 -19 -99 0 -6 18 -14 40
-18 34 -6 40 -11 40 -31 0 -28 2 -27 -53 -15 -23 6 -54 12 -68 15 l-26 6 23
112 c13 62 24 116 24 121 0 8 44 10 52 2z m298 -88 c45 -20 50 -24 38 -39 -11
-15 -19 -16 -55 -6 -46 13 -49 12 -55 -16 -2 -13 6 -21 32 -30 27 -9 34 -16
32 -31 -5 -28 -6 -28 -48 -15 -30 10 -38 10 -45 -1 -16 -26 -9 -37 35 -54 35
-13 43 -21 39 -36 -3 -10 -9 -19 -15 -19 -20 0 -138 42 -138 50 0 4 16 52 35
106 20 55 38 105 40 113 6 16 33 10 105 -22z m-1321 -3 c26 -34 27 -51 1 -59
-14 -5 -26 0 -38 16 -13 15 -24 20 -39 15 -30 -10 -34 -29 -17 -78 22 -64 38
-82 68 -74 31 8 37 46 7 46 -17 0 -31 18 -31 40 0 6 45 21 74 24 4 1 16 -21
27 -49 19 -49 19 -49 -3 -72 -27 -29 -80 -46 -118 -38 -24 5 -36 18 -55 56
-31 59 -41 128 -23 149 46 55 114 66 147 24z m1524 -84 c49 -22 77 -52 77 -84
0 -30 -40 -86 -60 -86 -16 0 -21 -10 -26 -50 -7 -54 -10 -57 -39 -36 -15 11
-17 21 -12 60 8 55 -13 65 -33 16 -16 -39 -25 -44 -48 -29 -17 11 -18 16 -8
38 22 49 96 191 100 191 2 0 24 -9 49 -20z m-1933 -109 l0 -58 60 -37 c73 -45
78 -53 46 -67 -22 -10 -31 -8 -67 15 -22 15 -44 25 -47 21 -4 -3 3 -24 15 -45
l22 -38 -22 -15 c-27 -17 -16 -29 -99 106 -26 43 -48 82 -48 87 0 5 9 14 20
20 18 9 23 6 43 -27 l22 -38 3 55 c2 37 8 59 19 68 28 21 33 14 33 -47z m2200
6 c0 -13 -31 -20 -41 -10 -5 5 -7 17 -3 26 5 13 9 14 25 4 10 -6 19 -15 19
-20z m-46 -23 c9 -3 16 -11 16 -16 0 -6 -30 -55 -66 -109 -58 -87 -68 -98 -85
-89 -10 6 -19 15 -19 20 0 14 122 200 131 200 4 0 14 -3 23 -6z m-809 -49
c350 -73 620 -219 870 -470 254 -253 404 -535 477 -895 20 -98 23 -144 23
-315 -1 -181 -4 -213 -29 -330 -67 -309 -194 -566 -392 -791 -251 -285 -565
-467 -949 -550 -119 -26 -148 -28 -335 -28 -187 0 -216 2 -335 28 -321 69
-558 188 -798 398 -220 193 -402 468 -490 743 -65 203 -82 314 -82 540 1 179
4 213 28 326 46 211 104 365 200 529 253 430 677 729 1162 819 161 30 155 29
345 27 145 -3 197 -8 305 -31z m-1544 -84 c19 -20 29 -40 29 -60 0 -26 7 -34
40 -51 45 -23 49 -34 19 -50 -16 -9 -27 -7 -55 9 -19 12 -39 21 -45 21 -16 0
-10 -26 11 -45 24 -22 25 -38 4 -56 -14 -11 -21 -8 -51 26 -68 77 -79 90 -101
121 l-21 31 32 30 c65 61 95 66 138 24z m2624 -82 c36 -33 45 -48 45 -75 0
-75 -82 -114 -135 -64 l-25 24 -28 -27 c-32 -31 -44 -33 -62 -12 -10 12 1 29
71 104 46 49 85 90 87 90 1 1 23 -18 47 -40z m-2938 -83 c-8 -19 -37 -21 -37
-3 0 7 5 18 12 25 15 15 33 -1 25 -22z m131 -42 c84 -76 93 -99 62 -149 -47
-76 -84 -74 -180 11 -41 36 -76 69 -78 73 -1 4 5 15 15 23 17 15 23 12 91 -48
62 -54 76 -63 93 -54 33 18 22 44 -46 109 -36 35 -65 66 -65 70 0 8 22 31 30
31 3 0 38 -30 78 -66z m-164 17 c9 -15 -23 -36 -36 -23 -5 5 -7 15 -4 21 9 13
33 14 40 2z m3156 -91 c0 -3 -34 -32 -75 -65 -41 -32 -75 -64 -75 -70 0 -7 7
-18 16 -25 29 -25 34 -45 13 -58 -16 -11 -23 -6 -59 39 -22 28 -40 55 -40 59
0 5 28 31 63 60 34 28 75 62 91 76 27 23 30 24 47 8 11 -10 19 -20 19 -24z
m-3235 -123 c-16 -26 -23 -18 103 -108 46 -34 49 -40 27 -59 -13 -11 -27 -6
-83 33 -84 57 -96 62 -112 42 -14 -17 -20 -18 -38 -6 -11 7 -8 17 13 52 44 71
65 90 86 78 17 -9 18 -12 4 -32z m3404 -115 c11 -27 8 -32 -70 -115 -45 -48
-87 -87 -95 -87 -21 0 -28 39 -9 60 24 27 1 63 -37 57 -21 -3 -32 2 -43 20 -9
13 -14 23 -13 23 2 1 48 16 103 34 128 43 149 44 164 8z m122 -238 c17 -37 28
-73 25 -80 -8 -21 -37 -17 -43 6 -7 27 -15 26 -104 -16 -81 -38 -113 -39 -107
-4 2 16 25 30 88 57 47 20 86 37 88 39 2 1 -1 12 -8 23 -12 24 -6 41 16 41 9
0 28 -27 45 -66z m-3648 -20 c56 -10 105 -20 108 -23 4 -3 3 -17 -2 -30 -7
-19 -14 -22 -34 -17 -20 5 -27 2 -37 -19 -9 -20 -8 -28 6 -44 19 -20 19 -52 0
-58 -8 -3 -163 104 -197 136 -4 4 -2 22 4 39 13 38 14 38 152 16z m3742 -235
c15 -60 16 -72 4 -80 -23 -14 -26 -11 -39 36 -9 32 -18 45 -31 45 -26 0 -31
-15 -21 -54 8 -28 7 -36 -5 -40 -26 -10 -31 -7 -43 29 -13 38 -18 40 -70 25
-36 -10 -46 -6 -52 23 -2 16 14 24 107 52 61 18 115 33 121 34 5 0 18 -31 29
-70z m-3828 -33 c91 -50 93 -52 87 -81 -3 -16 -8 -33 -11 -37 -2 -5 -60 -8
-129 -8 l-125 0 3 28 3 27 87 0 c100 0 100 5 0 55 -46 23 -62 36 -58 46 3 9 6
20 6 25 0 16 35 1 137 -55z m3863 -181 c44 -40 33 -131 -18 -155 -41 -18 -127
-24 -160 -11 -58 24 -72 115 -24 149 60 43 164 52 202 17z m-3883 -70 c20 -8
42 -23 49 -33 23 -29 17 -79 -14 -113 -25 -28 -33 -31 -84 -30 -97 1 -148 34
-148 96 0 35 26 82 47 88 40 10 116 6 150 -8z m3933 -255 c0 -59 -21 -106 -51
-115 -30 -10 -87 3 -97 22 -8 14 -14 13 -56 -5 l-46 -21 0 30 c0 26 6 33 40
46 22 9 40 22 40 30 0 9 -13 13 -40 13 -36 0 -40 3 -40 25 l0 25 125 0 125 0
0 -50z m-3925 -16 c21 -9 45 -56 45 -92 0 -39 -35 -82 -66 -82 -19 0 -24 5
-24 24 0 16 7 27 21 31 29 9 23 59 -8 63 -18 3 -23 -3 -29 -35 -9 -53 -21 -72
-50 -83 -78 -30 -138 74 -83 144 27 35 69 36 69 2 0 -16 -7 -27 -21 -31 -27
-9 -23 -60 5 -60 15 0 23 12 32 50 17 67 54 90 109 69z m3798 -200 c56 -10
106 -20 110 -24 5 -4 5 -23 2 -43 l-7 -35 -75 -7 c-41 -4 -72 -9 -69 -13 4 -3
34 -18 69 -33 60 -27 62 -29 59 -61 -2 -18 -7 -36 -10 -40 -4 -3 -45 0 -92 8
-47 8 -100 17 -117 19 -27 5 -33 10 -33 32 0 25 0 26 63 19 l62 -6 -57 26
c-32 15 -58 33 -58 40 0 34 13 43 71 50 68 8 69 16 1 24 -42 4 -47 8 -50 33
-4 33 -5 32 131 11z m-3752 -90 c24 -22 35 -79 20 -110 -15 -34 -84 -64 -149
-64 -70 0 -102 29 -102 93 0 53 20 74 87 93 58 17 118 12 144 -12z m65 -248
c4 -18 -2 -32 -30 -59 -40 -41 -33 -54 20 -37 40 14 43 13 46 -19 3 -22 -6
-27 -97 -58 -111 -37 -138 -39 -143 -6 -2 17 3 23 27 28 42 9 39 21 -6 32 -27
6 -42 17 -51 37 -8 15 -12 29 -9 32 2 2 23 -3 47 -11 63 -22 71 -20 125 35 27
28 53 50 57 50 4 0 10 -11 14 -24z m3648 -14 c84 -28 94 -38 74 -64 -12 -15
-21 -13 -98 13 -91 30 -110 27 -110 -17 0 -21 10 -26 90 -51 89 -28 102 -39
81 -71 -6 -10 -23 -8 -84 12 -102 33 -134 51 -141 79 -8 34 11 94 37 112 29
20 58 18 151 -13z m-2171 -1330 c29 -26 22 -70 -19 -108 -19 -19 -40 -34 -45
-34 -5 0 -9 -7 -9 -15 0 -10 10 -15 30 -15 26 0 30 -4 30 -26 0 -22 -3 -25
-23 -20 -12 3 -46 10 -75 16 -32 7 -52 17 -52 26 0 7 26 32 58 55 31 24 60 47
64 53 22 32 -15 63 -38 32 -14 -20 -54 -14 -54 8 0 16 21 42 40 49 22 8 73 -3
93 -21z m647 -37 c8 -43 17 -65 26 -65 15 0 19 -31 7 -44 -4 -4 -8 -17 -8 -29
0 -31 -41 -36 -50 -7 -6 19 -12 21 -45 15 -23 -4 -41 -2 -45 5 -10 16 44 168
63 180 32 18 40 10 52 -55z m-434 13 c15 -16 17 -26 15 -110 -1 -81 -20 -108
-76 -108 -22 0 -43 8 -55 20 -38 38 -22 195 22 214 20 8 80 -2 94 -16z m214 2
c30 -30 26 -79 -10 -120 -16 -19 -29 -38 -30 -42 0 -5 16 -8 35 -8 27 0 35 -4
35 -19 0 -14 -10 -20 -46 -25 -82 -11 -104 -8 -104 13 0 10 7 24 15 31 26 22
75 100 75 121 0 26 -40 26 -47 -1 -3 -13 -14 -20 -29 -20 -32 0 -32 33 1 65
30 31 77 33 105 5z"/>
<path d="M3386 4278 c-19 -26 -4 -51 28 -46 36 5 31 67 -6 68 -4 0 -14 -10
-22 -22z"/>
<path d="M2405 4074 c-107 -16 -260 -50 -314 -70 -73 -28 -229 -105 -275 -137
-170 -118 -296 -238 -391 -372 -101 -141 -172 -308 -223 -520 -23 -97 -26
-131 -26 -285 -1 -158 2 -186 27 -283 30 -121 103 -291 174 -410 74 -121 113
-126 59 -6 -14 30 -35 92 -48 139 -32 120 -32 351 1 490 42 181 116 334 226
470 58 72 157 172 197 198 14 9 47 32 72 50 61 44 204 114 288 140 196 63 412
67 623 13 396 -103 703 -392 819 -773 71 -232 55 -507 -44 -759 -11 -28 -17
-55 -14 -61 4 -6 3 -13 -2 -17 -5 -3 -14 -15 -20 -26 -12 -22 -107 -93 -168
-126 -43 -23 -65 -15 -47 18 14 27 -13 65 -42 61 -18 -2 -22 -10 -21 -38 0
-19 4 -43 8 -52 6 -12 4 -18 -5 -18 -8 0 -41 -13 -74 -29 -33 -16 -91 -41
-129 -56 -38 -14 -79 -33 -90 -41 -11 -8 -33 -14 -49 -14 -16 0 -54 -7 -84
-16 -60 -17 -70 -15 -55 13 12 22 -2 63 -20 63 -30 -1 -41 -18 -35 -53 5 -35
5 -36 -21 -26 -14 6 -32 15 -39 21 -7 6 -43 17 -80 24 -56 12 -68 12 -82 1
-24 -21 -106 -67 -119 -67 -7 0 -12 11 -12 25 0 14 -7 28 -15 32 -22 8 -55
-25 -55 -54 l0 -24 -38 23 c-61 37 -102 75 -102 96 0 17 -12 21 -97 31 -54 7
-116 19 -138 26 -22 8 -57 17 -77 21 -38 6 -42 12 -38 48 1 10 -1 29 -5 43 -4
19 -11 24 -33 21 -22 -2 -28 -9 -30 -35 -2 -18 2 -41 8 -53 13 -24 8 -25 -33
-4 -42 22 -177 154 -177 174 -1 20 -25 52 -33 43 -19 -18 0 -56 64 -128 39
-44 77 -95 86 -114 8 -19 21 -40 29 -48 8 -8 12 -24 10 -36 -3 -12 -8 -55 -11
-95 -6 -68 -5 -74 14 -79 18 -5 20 -13 19 -67 -3 -119 1 -156 17 -156 10 0 15
-10 15 -28 0 -16 7 -52 16 -81 8 -29 13 -59 10 -67 -3 -8 0 -14 7 -14 9 0 12
23 10 83 -1 89 6 167 16 167 10 0 27 -50 51 -152 16 -69 27 -98 37 -98 10 0
13 6 8 18 -4 9 -9 52 -11 95 -2 43 -6 82 -9 87 -3 5 0 12 6 15 7 5 9 41 4 120
-8 120 1 235 17 235 5 0 20 8 32 18 18 13 38 16 98 14 l77 -4 61 -61 c90 -90
95 -103 96 -232 0 -73 6 -131 18 -174 10 -35 15 -72 13 -83 -4 -14 -1 -18 11
-16 14 3 17 15 14 78 -4 91 13 78 24 -17 3 -36 11 -63 18 -63 13 0 14 237 2
341 -10 75 -11 72 94 153 l55 43 60 -19 c33 -9 73 -28 90 -42 l29 -24 3 -153
c1 -85 5 -179 8 -211 4 -35 2 -59 -5 -63 -15 -9 -2 -25 15 -18 11 4 15 22 15
68 0 71 6 95 25 95 15 0 21 -20 30 -102 11 -86 32 -77 24 10 -3 37 -3 70 1 75
7 8 -2 80 -22 172 -7 36 -7 62 2 93 13 52 49 71 137 76 43 2 59 8 72 25 15 19
27 22 113 25 76 2 98 0 103 -11 3 -8 0 -45 -6 -83 -10 -56 -9 -80 5 -141 11
-51 15 -111 13 -191 -2 -109 -1 -116 15 -107 10 5 19 16 19 24 1 8 2 18 3 23
1 4 6 42 10 84 4 43 12 80 16 83 5 3 12 -16 15 -42 4 -27 11 -64 16 -83 5 -19
9 -47 9 -62 0 -18 4 -26 13 -22 10 3 12 28 9 98 -4 95 10 195 29 207 7 4 11
57 10 145 -1 132 0 139 23 163 13 15 26 38 30 53 4 16 18 34 34 42 16 8 45 33
66 56 29 32 35 45 26 55 -6 7 -7 15 -3 17 15 6 60 73 96 143 133 261 191 539
167 800 -16 178 -55 308 -137 464 -66 126 -94 168 -196 289 -203 239 -457 395
-737 452 -99 20 -301 33 -365 24z"/>
<path d="M2410 3225 c-7 -8 -20 -15 -30 -15 -9 0 -25 -9 -35 -20 -10 -11 -31
-20 -47 -20 -37 0 -35 -11 7 -57 37 -40 41 -52 26 -81 -5 -9 -14 -29 -22 -45
-9 -19 -18 -26 -30 -22 -12 4 -23 -2 -35 -20 -9 -14 -22 -25 -30 -25 -12 0
-34 -29 -34 -44 0 -3 10 -14 22 -26 12 -11 17 -20 11 -20 -6 0 -23 -10 -38
-22 -19 -15 -45 -23 -79 -25 -65 -4 -98 -20 -90 -45 3 -11 0 -25 -6 -33 -13
-16 -52 -20 -64 -8 -4 4 -13 8 -19 8 -7 1 -24 5 -40 9 -63 19 -77 -44 -21 -92
33 -29 35 -32 21 -54 -23 -37 -11 -95 25 -116 30 -17 83 -104 71 -116 -4 -3
-1 -16 5 -29 6 -12 12 -31 14 -42 3 -16 11 -20 40 -21 19 -1 49 -10 64 -20 43
-28 68 -43 81 -50 7 -3 48 13 90 37 133 73 206 108 263 125 92 27 260 164 260
211 0 40 -16 47 -53 24 -37 -23 -47 -26 -47 -13 0 5 18 18 40 31 41 23 51 49
26 70 -10 8 -22 7 -50 -4 -46 -20 -47 -1 -1 21 35 16 43 36 25 64 -8 13 -15
13 -57 -2 -26 -9 -49 -15 -51 -13 -10 9 12 25 48 36 43 13 50 28 23 54 -12 12
-27 16 -55 12 -41 -5 -122 -41 -151 -65 -9 -8 -20 -12 -23 -9 -4 3 -19 0 -35
-8 -44 -23 -84 -19 -106 11 -17 22 -23 25 -40 16 -11 -6 -23 -20 -26 -32 -4
-16 2 -22 36 -31 22 -6 50 -17 63 -26 21 -13 24 -13 38 14 l15 28 1 -27 c0
-15 -4 -29 -10 -33 -5 -3 -6 -13 -3 -21 3 -9 -7 -41 -23 -71 -22 -40 -36 -56
-56 -60 -15 -3 -33 -12 -39 -19 -6 -8 -27 -14 -47 -14 -19 0 -50 -9 -68 -21
-19 -11 -40 -19 -47 -16 -6 2 5 14 26 27 25 15 37 29 37 44 0 13 3 26 8 30 8
8 13 43 13 90 0 26 10 57 42 124 6 13 23 26 39 29 15 3 28 9 28 13 0 4 28 24
61 44 47 28 71 36 103 35 22 -1 48 1 57 5 10 4 27 -2 45 -17 23 -18 38 -23 69
-20 48 5 75 -12 79 -49 1 -14 10 -33 19 -43 16 -15 22 -36 18 -59 -1 -4 4 -14
10 -22 13 -16 30 -82 34 -133 2 -28 9 -38 45 -59 53 -32 37 -41 -20 -12 l-42
21 -27 -23 c-14 -12 -31 -28 -36 -34 -20 -22 -104 -83 -141 -102 l-36 -19 61
-17 c54 -15 117 -51 216 -123 36 -26 80 -22 88 9 4 16 11 18 29 12 12 -4 27
-13 33 -20 13 -17 55 -7 55 14 0 8 -12 25 -26 37 -35 30 -26 62 21 71 37 7 51
30 40 64 -5 14 2 29 22 50 15 17 28 38 28 48 0 9 7 17 15 17 9 0 17 15 22 44
4 24 12 49 18 56 17 21 -9 55 -42 55 -14 0 -29 -6 -32 -12 -3 -10 -9 -8 -19 5
-8 9 -21 17 -30 17 -8 0 -18 7 -21 16 -4 10 -12 14 -22 10 -8 -3 -25 -1 -36 5
-11 6 -36 11 -54 11 -36 0 -39 4 -25 40 4 13 11 40 15 62 7 36 6 38 -14 33
-14 -3 -28 1 -41 14 -10 10 -30 19 -42 19 -27 0 -47 34 -47 78 0 35 -18 56
-36 41 -10 -8 -15 -1 -23 28 -6 21 -11 43 -11 49 0 20 -46 44 -59 31 -8 -8
-14 -8 -23 1 -7 7 -25 12 -41 12 -39 0 -118 47 -110 66 3 8 9 14 14 14 17 0 9
26 -14 48 -28 26 -31 27 -47 7z"/>
<path d="M2398 2835 c-20 -14 -41 -25 -47 -25 -17 0 -22 -19 -11 -40 13 -24
37 -25 85 -5 19 8 51 22 70 30 43 18 44 30 5 50 -40 21 -60 19 -102 -10z"/>
<path d="M2529 2846 c16 -19 44 -21 39 -3 -3 6 -15 14 -28 15 -21 3 -22 2 -11
-12z"/>
<path d="M2238 2689 c-10 -5 -18 -21 -18 -34 0 -19 5 -25 22 -25 12 0 41 -7
65 -16 76 -29 101 7 36 50 -47 31 -83 39 -105 25z"/>
<path d="M2216 2593 c-9 -21 -1 -27 59 -47 47 -15 51 -15 62 0 17 24 2 39 -52
53 -57 14 -62 14 -69 -6z"/>
<path d="M2205 2530 c-17 -28 42 -43 64 -16 9 11 7 15 -11 20 -33 8 -46 7 -53
-4z"/>
<path d="M2444 2282 c-42 -18 -244 -131 -244 -138 0 -2 9 -28 21 -59 12 -31
18 -66 15 -78 -3 -13 2 -29 13 -42 10 -11 23 -40 30 -64 12 -40 11 -45 -10
-67 -21 -22 -21 -24 -5 -49 14 -22 20 -24 32 -14 10 8 18 9 25 2 16 -16 44 -5
61 25 16 28 17 46 3 96 -10 36 19 96 46 96 10 0 21 5 24 10 3 6 14 10 23 10
10 0 25 9 35 20 9 11 25 20 35 20 10 0 40 16 66 37 41 32 49 35 72 24 15 -6
33 -30 45 -56 11 -24 24 -47 29 -50 16 -10 61 17 55 34 -2 9 2 29 10 45 22 42
20 49 -32 87 -96 71 -149 98 -222 114 -86 18 -76 18 -127 -3z"/>
<path d="M1202 4048 c-7 -9 -5 -20 9 -37 l20 -24 21 21 c18 17 19 23 8 36 -15
19 -44 21 -58 4z"/>
<path d="M3849 3954 c-15 -18 -2 -47 24 -52 22 -5 42 35 26 54 -15 18 -33 18
-50 -2z"/>
<path d="M4163 3529 c-34 -10 -42 -22 -22 -35 6 -3 23 5 37 20 15 14 24 26 22
25 -3 0 -20 -5 -37 -10z"/>
<path d="M689 3250 c27 -23 41 -25 41 -6 0 15 -21 26 -48 26 -14 -1 -12 -5 7
-20z"/>
<path d="M4385 2823 c-76 -19 -49 -93 28 -78 68 13 88 26 85 54 -3 23 -7 26
-48 28 -25 0 -54 -1 -65 -4z"/>
<path d="M508 2749 c-22 -12 -23 -42 -4 -58 22 -18 113 -26 131 -11 20 17 19
47 -2 58 -30 16 -107 22 -125 11z"/>
<path d="M4456 2532 c-3 -5 -2 -19 1 -31 4 -17 12 -21 32 -19 20 2 27 9 29 31
3 24 0 27 -27 27 -16 0 -32 -4 -35 -8z"/>
<path d="M555 2193 c-29 -7 -45 -23 -45 -43 0 -31 25 -42 75 -35 59 9 90 33
81 63 -6 18 -14 22 -49 21 -23 -1 -51 -4 -62 -6z"/>
<path d="M2825 557 c-4 -10 -5 -21 -1 -24 10 -10 18 4 13 24 -4 17 -4 17 -12
0z"/>
<path d="M2367 583 c-4 -3 -7 -35 -7 -70 0 -61 1 -64 23 -61 20 3 22 9 25 71
3 60 1 67 -16 67 -10 0 -22 -3 -25 -7z"/>
</g>
</svg>
